<?xml version="1.0" standalone="no"?>
 <!DOCTYPE svg PUBLIC "-//W3C//DTD SVG 1.1//EN" 
 "http://www.w3.org/Graphics/SVG/1.1/DTD/svg11.dtd"> 
<svg xmlns="http://www.w3.org/2000/svg" version="1.1" 
    width="21.016cm" height="13.5153cm" viewBox="0 0 82740 53210 ">
<title>SVG Picture created as remote-sequencer-F.SilkS.svg date 2019/01/13 00:05:56 </title>
  <desc>Picture generated by PCBNEW </desc>
<g style="fill:#000000; fill-opacity:1;stroke:#000000; stroke-opacity:1;
stroke-linecap:round; stroke-linejoin:round; "
 transform="translate(0 0) scale(1 1)">
</g>
<g style="fill:#000000; fill-opacity:0.0; 
stroke:#000000; stroke-width:-0.000393701; stroke-opacity:1; 
stroke-linecap:round; stroke-linejoin:round;">
</g>
<g style="fill:#000000; fill-opacity:0.0; 
stroke:#000000; stroke-width:118.11; stroke-opacity:1; 
stroke-linecap:round; stroke-linejoin:round;">
<path d="M57401 12686
L57683 12883
" />
<path d="M57401 13023
L57992 13023
L57992 12798
L57964 12742
L57936 12714
L57880 12686
L57795 12686
L57739 12714
L57711 12742
L57683 12798
L57683 13023
" />
<path d="M57711 12433
L57711 12236
" />
<path d="M57401 12152
L57401 12433
L57992 12433
L57992 12152
" />
<path d="M57401 11899
L57992 11899
L57570 11702
L57992 11505
L57401 11505
" />
<path d="M57992 11111
L57992 10999
L57964 10942
L57908 10886
L57795 10858
L57598 10858
L57486 10886
L57430 10942
L57401 10999
L57401 11111
L57430 11167
L57486 11224
L57598 11252
L57795 11252
L57908 11224
L57964 11167
L57992 11111
" />
<path d="M57992 10689
L57992 10352
" />
<path d="M57401 10521
L57992 10521
" />
<path d="M57711 10155
L57711 9958
" />
<path d="M57401 9874
L57401 10155
L57992 10155
L57992 9874
" />
<path d="M57401 9171
L57992 9171
L57992 8946
L57964 8890
L57936 8861
L57880 8833
L57795 8833
L57739 8861
L57711 8890
L57683 8946
L57683 9171
" />
<path d="M57992 8468
L57992 8355
L57964 8299
L57908 8243
L57795 8215
L57598 8215
L57486 8243
L57430 8299
L57401 8355
L57401 8468
L57430 8524
L57486 8580
L57598 8608
L57795 8608
L57908 8580
L57964 8524
L57992 8468
" />
<path d="M57992 8018
L57401 7877
L57823 7765
L57401 7652
L57992 7512
" />
<path d="M57711 7287
L57711 7090
" />
<path d="M57401 7005
L57401 7287
L57992 7287
L57992 7005
" />
<path d="M57401 6415
L57683 6612
" />
<path d="M57401 6752
L57992 6752
L57992 6527
L57964 6471
L57936 6443
L57880 6415
L57795 6415
L57739 6443
L57711 6471
L57683 6527
L57683 6752
" />
<path d="M57430 5740
L57401 5656
L57401 5515
L57430 5459
L57458 5431
L57514 5402
L57570 5402
L57626 5431
L57655 5459
L57683 5515
L57711 5627
L57739 5684
L57767 5712
L57823 5740
L57880 5740
L57936 5712
L57964 5684
L57992 5627
L57992 5487
L57964 5402
" />
<path d="M57711 5149
L57711 4953
" />
<path d="M57401 4868
L57401 5149
L57992 5149
L57992 4868
" />
<path d="M57345 4221
L57373 4278
L57430 4334
L57514 4418
L57542 4474
L57542 4531
" />
<path d="M57401 4503
L57430 4559
L57486 4615
L57598 4643
L57795 4643
L57908 4615
L57964 4559
L57992 4503
L57992 4390
L57964 4334
L57908 4278
L57795 4250
L57598 4250
L57486 4278
L57430 4334
L57401 4390
L57401 4503
" />
<path d="M57992 3996
L57514 3996
L57458 3968
L57430 3940
L57401 3884
L57401 3771
L57430 3715
L57458 3687
L57514 3659
L57992 3659
" />
<path d="M57711 3378
L57711 3181
" />
<path d="M57401 3097
L57401 3378
L57992 3378
L57992 3097
" />
<path d="M57401 2843
L57992 2843
L57401 2506
L57992 2506
" />
<path d="M57458 1887
L57430 1915
L57401 2000
L57401 2056
L57430 2140
L57486 2197
L57542 2225
L57655 2253
L57739 2253
L57851 2225
L57908 2197
L57964 2140
L57992 2056
L57992 2000
L57964 1915
L57936 1887
" />
<path d="M57711 1634
L57711 1437
" />
<path d="M57401 1353
L57401 1634
L57992 1634
L57992 1353
" />
<path d="M57401 762
L57683 959
" />
<path d="M57401 1100
L57992 1100
L57992 875
L57964 819
L57936 791
L57880 762
L57795 762
L57739 791
L57711 819
L57683 875
L57683 1100
" />
<path d="M56398 10282
L56679 10478
" />
<path d="M56398 10619
L56988 10619
L56988 10394
L56960 10338
L56932 10310
L56876 10282
L56791 10282
L56735 10310
L56707 10338
L56679 10394
L56679 10619
" />
<path d="M56707 9832
L56707 10028
" />
<path d="M56398 10028
L56988 10028
L56988 9747
" />
<path d="M56426 9100
L56398 9016
L56398 8875
L56426 8819
L56454 8791
L56510 8763
L56566 8763
L56623 8791
L56651 8819
L56679 8875
L56707 8988
L56735 9044
L56763 9072
L56819 9100
L56876 9100
L56932 9072
L56960 9044
L56988 8988
L56988 8847
L56960 8763
" />
<path d="M56707 8510
L56707 8313
" />
<path d="M56398 8229
L56398 8510
L56988 8510
L56988 8229
" />
<path d="M56398 7976
L56988 7976
L56398 7638
L56988 7638
" />
<path d="M56426 7385
L56398 7301
L56398 7160
L56426 7104
L56454 7076
L56510 7048
L56566 7048
L56623 7076
L56651 7104
L56679 7160
L56707 7273
L56735 7329
L56763 7357
L56819 7385
L56876 7385
L56932 7357
L56960 7329
L56988 7273
L56988 7132
L56960 7048
" />
<path d="M56707 6794
L56707 6598
" />
<path d="M56398 6513
L56398 6794
L56988 6794
L56988 6513
" />
<path d="M56707 5613
L56679 5529
L56651 5501
L56594 5473
L56510 5473
L56454 5501
L56426 5529
L56398 5585
L56398 5810
L56988 5810
L56988 5613
L56960 5557
L56932 5529
L56876 5501
L56819 5501
L56763 5529
L56735 5557
L56707 5613
L56707 5810
" />
<path d="M56988 5107
L56988 4995
L56960 4938
L56904 4882
L56791 4854
L56594 4854
L56482 4882
L56426 4938
L56398 4995
L56398 5107
L56426 5163
L56482 5220
L56594 5248
L56791 5248
L56904 5220
L56960 5163
L56988 5107
" />
<path d="M56566 4629
L56566 4348
" />
<path d="M56398 4685
L56988 4489
L56398 4292
" />
<path d="M56398 3757
L56679 3954
" />
<path d="M56398 4095
L56988 4095
L56988 3870
L56960 3814
L56932 3785
L56876 3757
L56791 3757
L56735 3785
L56707 3814
L56679 3870
L56679 4095
" />
<path d="M56398 3504
L56988 3504
L56988 3364
L56960 3279
L56904 3223
L56847 3195
L56735 3167
L56651 3167
L56538 3195
L56482 3223
L56426 3279
L56398 3364
L56398 3504
" />
</g>
<g style="fill:#000000; fill-opacity:0.0; 
stroke:#000000; stroke-width:98.4252; stroke-opacity:1; 
stroke-linecap:round; stroke-linejoin:round;">
<path d="M72034 6741
L72165 6553
" />
<path d="M72259 6741
L72259 6347
L72109 6347
L72071 6366
L72053 6384
L72034 6422
L72034 6478
L72053 6516
L72071 6534
L72109 6553
L72259 6553
" />
<path d="M71734 6534
L71865 6534
" />
<path d="M71865 6741
L71865 6347
L71678 6347
" />
<path d="M71622 6778
L71322 6778
" />
<path d="M71228 6741
L71228 6347
" />
<path d="M71040 6741
L71040 6347
L70815 6741
L70815 6347
" />
<path d="M72053 7055
L72090 7036
L72146 7036
L72203 7055
L72240 7092
L72259 7130
L72278 7205
L72278 7261
L72259 7336
L72240 7373
L72203 7411
L72146 7430
L72109 7430
L72053 7411
L72034 7392
L72034 7261
L72109 7261
" />
<path d="M71865 7430
L71865 7036
L71640 7430
L71640 7036
" />
<path d="M71453 7430
L71453 7036
L71359 7036
L71303 7055
L71265 7092
L71247 7130
L71228 7205
L71228 7261
L71247 7336
L71265 7373
L71303 7411
L71359 7430
L71453 7430
" />
</g>
<g style="fill:#000000; fill-opacity:0.0; 
stroke:#000000; stroke-width:118.11; stroke-opacity:1; 
stroke-linecap:round; stroke-linejoin:round;">
<path d="M61806 2758
L61300 1999
" />
<path d="M62340 2140
L62143 2421
" />
<path d="M62003 2140
L62003 2730
L62228 2730
L62284 2702
L62312 2674
L62340 2618
L62340 2534
L62312 2477
L62284 2449
L62228 2421
L62003 2421
" />
<path d="M62790 2449
L62593 2449
" />
<path d="M62593 2140
L62593 2730
L62874 2730
" />
<path d="M58634 2365
L59084 2365
" />
<path d="M58859 2140
L58859 2590
" />
<path d="M59646 2730
L59365 2730
L59337 2449
L59365 2477
L59421 2505
L59562 2505
L59618 2477
L59646 2449
L59675 2393
L59675 2252
L59646 2196
L59618 2168
L59562 2140
L59421 2140
L59365 2168
L59337 2196
" />
<path d="M59843 2730
L60040 2140
L60237 2730
" />
<path d="M60434 2365
L60884 2365
" />
<path d="M71862 51422
L72059 51141
" />
<path d="M72199 51422
L72199 50832
L71974 50832
L71918 50860
L71890 50888
L71862 50944
L71862 51028
L71890 51085
L71918 51113
L71974 51141
L72199 51141
" />
<path d="M71609 51113
L71412 51113
" />
<path d="M71328 51422
L71609 51422
L71609 50832
L71328 50832
" />
<path d="M71074 51422
L71074 50832
L70878 51253
L70681 50832
L70681 51422
" />
<path d="M70287 50832
L70175 50832
L70118 50860
L70062 50916
L70034 51028
L70034 51225
L70062 51338
L70118 51394
L70175 51422
L70287 51422
L70343 51394
L70400 51338
L70428 51225
L70428 51028
L70400 50916
L70343 50860
L70287 50832
" />
<path d="M69865 50832
L69528 50832
" />
<path d="M69696 51422
L69696 50832
" />
<path d="M69331 51113
L69134 51113
" />
<path d="M69050 51422
L69331 51422
L69331 50832
L69050 50832
" />
<path d="M68347 51422
L68347 50832
L68122 50832
L68065 50860
L68037 50888
L68009 50944
L68009 51028
L68037 51085
L68065 51113
L68122 51141
L68347 51141
" />
<path d="M67644 50832
L67531 50832
L67475 50860
L67419 50916
L67391 51028
L67391 51225
L67419 51338
L67475 51394
L67531 51422
L67644 51422
L67700 51394
L67756 51338
L67784 51225
L67784 51028
L67756 50916
L67700 50860
L67644 50832
" />
<path d="M67194 50832
L67053 51422
L66941 51000
L66828 51422
L66687 50832
" />
<path d="M66463 51113
L66266 51113
" />
<path d="M66181 51422
L66463 51422
L66463 50832
L66181 50832
" />
<path d="M65591 51422
L65788 51141
" />
<path d="M65928 51422
L65928 50832
L65703 50832
L65647 50860
L65619 50888
L65591 50944
L65591 51028
L65619 51085
L65647 51113
L65703 51141
L65928 51141
" />
<path d="M64916 51394
L64831 51422
L64691 51422
L64635 51394
L64606 51366
L64578 51310
L64578 51253
L64606 51197
L64635 51169
L64691 51141
L64803 51113
L64860 51085
L64888 51057
L64916 51000
L64916 50944
L64888 50888
L64860 50860
L64803 50832
L64663 50832
L64578 50860
" />
<path d="M64325 51113
L64128 51113
" />
<path d="M64044 51422
L64325 51422
L64325 50832
L64044 50832
" />
<path d="M63397 51478
L63454 51450
L63510 51394
L63594 51310
L63650 51282
L63707 51282
" />
<path d="M63678 51422
L63735 51394
L63791 51338
L63819 51225
L63819 51028
L63791 50916
L63735 50860
L63678 50832
L63566 50832
L63510 50860
L63454 50916
L63425 51028
L63425 51225
L63454 51338
L63510 51394
L63566 51422
L63678 51422
" />
<path d="M63172 50832
L63172 51310
L63144 51366
L63116 51394
L63060 51422
L62947 51422
L62891 51394
L62863 51366
L62835 51310
L62835 50832
" />
<path d="M62554 51113
L62357 51113
" />
<path d="M62272 51422
L62554 51422
L62554 50832
L62272 50832
" />
<path d="M62019 51422
L62019 50832
L61682 51422
L61682 50832
" />
<path d="M61063 51366
L61091 51394
L61176 51422
L61232 51422
L61316 51394
L61373 51338
L61401 51282
L61429 51169
L61429 51085
L61401 50972
L61373 50916
L61316 50860
L61232 50832
L61176 50832
L61091 50860
L61063 50888
" />
<path d="M60810 51113
L60613 51113
" />
<path d="M60529 51422
L60810 51422
L60810 50832
L60529 50832
" />
<path d="M59938 51422
L60135 51141
" />
<path d="M60276 51422
L60276 50832
L60051 50832
L59995 50860
L59966 50888
L59938 50944
L59938 51028
L59966 51085
L59995 51113
L60051 51141
L60276 51141
" />
<path d="M71862 52426
L72059 52145
" />
<path d="M72199 52426
L72199 51836
L71974 51836
L71918 51864
L71890 51892
L71862 51948
L71862 52032
L71890 52089
L71918 52117
L71974 52145
L72199 52145
" />
<path d="M71609 52117
L71412 52117
" />
<path d="M71328 52426
L71609 52426
L71609 51836
L71328 51836
" />
<path d="M70793 52426
L71074 52426
L71074 51836
" />
<path d="M70624 52257
L70343 52257
" />
<path d="M70681 52426
L70484 51836
L70287 52426
" />
<path d="M69978 52145
L69978 52426
" />
<path d="M70175 51836
L69978 52145
L69781 51836
" />
<path d="M68937 52117
L68853 52145
L68825 52173
L68797 52229
L68797 52314
L68825 52370
L68853 52398
L68909 52426
L69134 52426
L69134 51836
L68937 51836
L68881 51864
L68853 51892
L68825 51948
L68825 52004
L68853 52061
L68881 52089
L68937 52117
L69134 52117
" />
<path d="M68431 51836
L68319 51836
L68262 51864
L68206 51920
L68178 52032
L68178 52229
L68206 52342
L68262 52398
L68319 52426
L68431 52426
L68487 52398
L68543 52342
L68572 52229
L68572 52032
L68543 51920
L68487 51864
L68431 51836
" />
<path d="M67953 52257
L67672 52257
" />
<path d="M68009 52426
L67812 51836
L67615 52426
" />
<path d="M67081 52426
L67278 52145
" />
<path d="M67419 52426
L67419 51836
L67194 51836
L67137 51864
L67109 51892
L67081 51948
L67081 52032
L67109 52089
L67137 52117
L67194 52145
L67419 52145
" />
<path d="M66828 52426
L66828 51836
L66687 51836
L66603 51864
L66547 51920
L66519 51976
L66491 52089
L66491 52173
L66519 52285
L66547 52342
L66603 52398
L66687 52426
L66828 52426
" />
</g>
<g style="fill:#000000; fill-opacity:0.0; 
stroke:#000000; stroke-width:196.85; stroke-opacity:1; 
stroke-linecap:round; stroke-linejoin:round;">
<path d="M50060 45717
L50060 46092
L50848 46092
" />
<path d="M50060 45454
L50848 45454
" />
<path d="M50060 45079
L50848 45079
L50060 44629
L50848 44629
" />
<path d="M50473 44254
L50473 43992
" />
<path d="M50060 43879
L50060 44254
L50848 44254
L50848 43879
" />
<path d="M50060 38592
L50848 38592
L50060 38142
L50848 38142
" />
<path d="M50473 37767
L50473 37504
" />
<path d="M50060 37392
L50060 37767
L50848 37767
L50848 37392
" />
<path d="M50848 37054
L50210 37054
L50135 37017
L50098 36979
L50060 36904
L50060 36754
L50098 36679
L50135 36642
L50210 36604
L50848 36604
" />
<path d="M50848 36342
L50848 35892
" />
<path d="M50060 36117
L50848 36117
" />
<path d="M50060 35179
L50435 35442
" />
<path d="M50060 35629
L50848 35629
L50848 35329
L50810 35254
L50773 35217
L50698 35179
L50585 35179
L50510 35217
L50473 35254
L50435 35329
L50435 35629
" />
<path d="M50285 34880
L50285 34505
" />
<path d="M50060 34955
L50848 34692
L50060 34430
" />
<path d="M50060 33792
L50060 34167
L50848 34167
" />
<path d="M50810 27679
L50848 27754
L50848 27867
L50810 27979
L50735 28054
L50660 28092
L50510 28129
L50398 28129
L50248 28092
L50173 28054
L50098 27979
L50060 27867
L50060 27792
L50098 27679
L50135 27642
L50398 27642
L50398 27792
" />
<path d="M50060 27304
L50848 27304
L50060 26854
L50848 26854
" />
<path d="M50060 26479
L50848 26479
L50848 26292
L50810 26179
L50735 26104
L50660 26067
L50510 26029
L50398 26029
L50248 26067
L50173 26104
L50098 26179
L50060 26292
L50060 26479
" />
<path d="M55226 22763
L55601 22763
L55601 21976
" />
<path d="M52564 22763
L52564 21976
L52114 22763
L52114 21976
" />
<path d="M48927 22013
L49002 21976
L49115 21976
L49227 22013
L49302 22088
L49340 22163
L49377 22313
L49377 22426
L49340 22576
L49302 22651
L49227 22726
L49115 22763
L49040 22763
L48927 22726
L48890 22688
L48890 22426
L49040 22426
" />
<path d="M48552 22763
L48552 21976
L48102 22763
L48102 21976
" />
<path d="M47727 22763
L47727 21976
L47540 21976
L47427 22013
L47352 22088
L47315 22163
L47277 22313
L47277 22426
L47315 22576
L47352 22651
L47427 22726
L47540 22763
L47727 22763
" />
</g>
<g style="fill:#000000; fill-opacity:0.0; 
stroke:#000000; stroke-width:118.11; stroke-opacity:1; 
stroke-linecap:round; stroke-linejoin:round;">
<path d="M77624 50440
L77624 49990
" />
<path d="M77400 50215
L77849 50215
" />
<path d="M77400 49399
L77400 49737
" />
<path d="M77400 49568
L77990 49568
L77906 49624
L77849 49680
L77821 49737
" />
<path d="M77934 49174
L77962 49146
L77990 49090
L77990 48949
L77962 48893
L77934 48865
L77878 48837
L77821 48837
L77737 48865
L77400 49202
L77400 48837
" />
<path d="M77990 48668
L77400 48471
L77990 48274
" />
<path d="M77624 48077
L77624 47627
" />
<path d="M80900 38130
L80900 38468
" />
<path d="M80900 38299
L81490 38299
L81406 38355
L81349 38411
L81321 38468
" />
<path d="M81434 37455
L81462 37427
L81490 37371
L81490 37230
L81462 37174
L81434 37146
L81378 37118
L81321 37118
L81237 37146
L80900 37483
L80900 37118
" />
<path d="M81490 36471
L81490 36106
L81265 36302
L81265 36218
L81237 36162
L81209 36134
L81153 36106
L81012 36106
L80956 36134
L80928 36162
L80900 36218
L80900 36387
L80928 36443
L80956 36471
" />
<path d="M81293 35149
L80900 35149
" />
<path d="M81518 35290
L81096 35431
L81096 35065
" />
<path d="M81890 34112
L81946 34084
L82031 34084
L82115 34112
L82171 34168
L82199 34224
L82227 34337
L82227 34421
L82199 34534
L82171 34590
L82115 34646
L82031 34674
L81974 34674
L81890 34646
L81862 34618
L81862 34421
L81974 34421
" />
<path d="M81609 34674
L81609 34084
L81271 34674
L81271 34084
" />
<path d="M80990 34674
L80990 34084
L80849 34084
L80765 34112
L80709 34168
L80681 34224
L80653 34337
L80653 34421
L80681 34534
L80709 34590
L80765 34646
L80849 34674
L80990 34674
" />
<path d="M30964 27353
L31161 27072
" />
<path d="M31302 27353
L31302 26763
L31077 26763
L31020 26791
L30992 26819
L30964 26875
L30964 26960
L30992 27016
L31020 27044
L31077 27072
L31302 27072
" />
<path d="M30711 27044
L30514 27044
" />
<path d="M30430 27353
L30711 27353
L30711 26763
L30430 26763
" />
<path d="M30177 27353
L30177 26763
L29980 27185
L29783 26763
L29783 27353
" />
<path d="M29389 26763
L29277 26763
L29221 26791
L29164 26847
L29136 26960
L29136 27156
L29164 27269
L29221 27325
L29277 27353
L29389 27353
L29446 27325
L29502 27269
L29530 27156
L29530 26960
L29502 26847
L29446 26791
L29389 26763
" />
<path d="M28968 26763
L28630 26763
" />
<path d="M28799 27353
L28799 26763
" />
<path d="M28433 27044
L28236 27044
" />
<path d="M28152 27353
L28433 27353
L28433 26763
L28152 26763
" />
<path d="M27449 27353
L27449 26763
L27224 26763
L27168 26791
L27140 26819
L27112 26875
L27112 26960
L27140 27016
L27168 27044
L27224 27072
L27449 27072
" />
<path d="M26746 26763
L26633 26763
L26577 26791
L26521 26847
L26493 26960
L26493 27156
L26521 27269
L26577 27325
L26633 27353
L26746 27353
L26802 27325
L26858 27269
L26887 27156
L26887 26960
L26858 26847
L26802 26791
L26746 26763
" />
<path d="M26296 26763
L26155 27353
L26043 26931
L25930 27353
L25790 26763
" />
<path d="M25565 27044
L25368 27044
" />
<path d="M25284 27353
L25565 27353
L25565 26763
L25284 26763
" />
<path d="M24693 27353
L24890 27072
" />
<path d="M25031 27353
L25031 26763
L24806 26763
L24749 26791
L24721 26819
L24693 26875
L24693 26960
L24721 27016
L24749 27044
L24806 27072
L25031 27072
" />
<path d="M24018 27325
L23934 27353
L23793 27353
L23737 27325
L23709 27297
L23681 27241
L23681 27185
L23709 27128
L23737 27100
L23793 27072
L23906 27044
L23962 27016
L23990 26988
L24018 26931
L24018 26875
L23990 26819
L23962 26791
L23906 26763
L23765 26763
L23681 26791
" />
<path d="M23428 27044
L23231 27044
" />
<path d="M23146 27353
L23428 27353
L23428 26763
L23146 26763
" />
<path d="M22500 27410
L22556 27381
L22612 27325
L22696 27241
L22753 27213
L22809 27213
" />
<path d="M22781 27353
L22837 27325
L22893 27269
L22921 27156
L22921 26960
L22893 26847
L22837 26791
L22781 26763
L22668 26763
L22612 26791
L22556 26847
L22528 26960
L22528 27156
L22556 27269
L22612 27325
L22668 27353
L22781 27353
" />
<path d="M22275 26763
L22275 27241
L22247 27297
L22218 27325
L22162 27353
L22050 27353
L21993 27325
L21965 27297
L21937 27241
L21937 26763
" />
<path d="M21656 27044
L21459 27044
" />
<path d="M21375 27353
L21656 27353
L21656 26763
L21375 26763
" />
<path d="M21122 27353
L21122 26763
L20784 27353
L20784 26763
" />
<path d="M20166 27297
L20194 27325
L20278 27353
L20334 27353
L20419 27325
L20475 27269
L20503 27213
L20531 27100
L20531 27016
L20503 26903
L20475 26847
L20419 26791
L20334 26763
L20278 26763
L20194 26791
L20166 26819
" />
<path d="M19912 27044
L19716 27044
" />
<path d="M19631 27353
L19912 27353
L19912 26763
L19631 26763
" />
<path d="M19041 27353
L19238 27072
" />
<path d="M19378 27353
L19378 26763
L19153 26763
L19097 26791
L19069 26819
L19041 26875
L19041 26960
L19069 27016
L19097 27044
L19153 27072
L19378 27072
" />
<path d="M31302 28357
L31302 27767
L31105 28188
L30908 27767
L30908 28357
" />
<path d="M30655 28188
L30374 28188
" />
<path d="M30711 28357
L30514 27767
L30317 28357
" />
<path d="M30121 28357
L30121 27767
" />
<path d="M29839 28357
L29839 27767
L29502 28357
L29502 27767
" />
<path d="M28574 28048
L28489 28076
L28461 28104
L28433 28160
L28433 28245
L28461 28301
L28489 28329
L28546 28357
L28771 28357
L28771 27767
L28574 27767
L28518 27795
L28489 27823
L28461 27879
L28461 27935
L28489 27992
L28518 28020
L28574 28048
L28771 28048
" />
<path d="M28068 27767
L27955 27767
L27899 27795
L27843 27851
L27815 27964
L27815 28160
L27843 28273
L27899 28329
L27955 28357
L28068 28357
L28124 28329
L28180 28273
L28208 28160
L28208 27964
L28180 27851
L28124 27795
L28068 27767
" />
<path d="M27590 28188
L27308 28188
" />
<path d="M27646 28357
L27449 27767
L27252 28357
" />
<path d="M26718 28357
L26915 28076
" />
<path d="M27055 28357
L27055 27767
L26830 27767
L26774 27795
L26746 27823
L26718 27879
L26718 27964
L26746 28020
L26774 28048
L26830 28076
L27055 28076
" />
<path d="M26465 28357
L26465 27767
L26324 27767
L26240 27795
L26184 27851
L26155 27907
L26127 28020
L26127 28104
L26155 28217
L26184 28273
L26240 28329
L26324 28357
L26465 28357
" />
<path d="M4626 16829
L4907 17025
" />
<path d="M4626 17166
L5216 17166
L5216 16941
L5188 16885
L5160 16857
L5104 16829
L5020 16829
L4963 16857
L4935 16885
L4907 16941
L4907 17166
" />
<path d="M4935 16575
L4935 16379
" />
<path d="M4626 16294
L4626 16575
L5216 16575
L5216 16294
" />
<path d="M4795 16069
L4795 15788
" />
<path d="M4626 16125
L5216 15929
L4626 15732
" />
<path d="M4626 15535
L5216 15535
L5216 15394
L5188 15310
L5132 15254
L5076 15226
L4963 15197
L4879 15197
L4766 15226
L4710 15254
L4654 15310
L4626 15394
L4626 15535
" />
<path d="M4907 14832
L4626 14832
" />
<path d="M5216 15029
L4907 14832
L5216 14635
" />
<path d="M8264 17222
L7673 17082
L8095 16969
L7673 16857
L8264 16716
" />
<path d="M8264 16379
L8264 16266
L8236 16210
L8179 16154
L8067 16125
L7870 16125
L7757 16154
L7701 16210
L7673 16266
L7673 16379
L7701 16435
L7757 16491
L7870 16519
L8067 16519
L8179 16491
L8236 16435
L8264 16379
" />
<path d="M7673 15535
L7954 15732
" />
<path d="M7673 15872
L8264 15872
L8264 15647
L8236 15591
L8207 15563
L8151 15535
L8067 15535
L8011 15563
L7982 15591
L7954 15647
L7954 15872
" />
<path d="M7673 15282
L8264 15282
" />
<path d="M7673 14944
L8011 15197
" />
<path d="M8264 14944
L7926 15282
" />
<path d="M7673 14691
L8264 14691
" />
<path d="M7673 14410
L8264 14410
L7673 14073
L8264 14073
" />
<path d="M8236 13482
L8264 13538
L8264 13623
L8236 13707
L8179 13763
L8123 13791
L8011 13820
L7926 13820
L7814 13791
L7757 13763
L7701 13707
L7673 13623
L7673 13566
L7701 13482
L7729 13454
L7926 13454
L7926 13566
" />
<path d="M5268 27258
L5268 27146
L5239 27089
L5183 27033
L5071 27005
L4874 27005
L4761 27033
L4705 27089
L4677 27146
L4677 27258
L4705 27314
L4761 27371
L4874 27399
L5071 27399
L5183 27371
L5239 27314
L5268 27258
" />
<path d="M4986 26555
L4986 26752
" />
<path d="M4677 26752
L5268 26752
L5268 26471
" />
<path d="M4986 26049
L4986 26246
" />
<path d="M4677 26246
L5268 26246
L5268 25965
" />
<path d="M7236 27258
L7236 27146
L7208 27089
L7152 27033
L7039 27005
L6842 27005
L6730 27033
L6674 27089
L6646 27146
L6646 27258
L6674 27314
L6730 27371
L6842 27399
L7039 27399
L7152 27371
L7208 27314
L7236 27258
" />
<path d="M6646 26752
L7236 26752
L6646 26415
L7236 26415
" />
<path d="M22134 20403
L22190 20375
L22275 20375
L22359 20403
L22415 20459
L22443 20516
L22472 20628
L22472 20712
L22443 20825
L22415 20881
L22359 20937
L22275 20965
L22218 20965
L22134 20937
L22106 20909
L22106 20712
L22218 20712
" />
<path d="M21853 20965
L21853 20375
L21515 20965
L21515 20375
" />
<path d="M21234 20965
L21234 20375
L21094 20375
L21009 20403
L20953 20459
L20925 20516
L20897 20628
L20897 20712
L20925 20825
L20953 20881
L21009 20937
L21094 20965
L21234 20965
" />
<path d="M19441 25065
L19722 25262
" />
<path d="M19441 25402
L20031 25402
L20031 25177
L20003 25121
L19975 25093
L19919 25065
L19835 25065
L19778 25093
L19750 25121
L19722 25177
L19722 25402
" />
<path d="M19750 24812
L19750 24615
" />
<path d="M19441 24530
L19441 24812
L20031 24812
L20031 24530
" />
<path d="M19441 23996
L19441 24277
L20031 24277
" />
<path d="M19610 23827
L19610 23546
" />
<path d="M19441 23884
L20031 23687
L19441 23490
" />
<path d="M19722 23181
L19441 23181
" />
<path d="M20031 23377
L19722 23181
L20031 22984
" />
<path d="M19750 22140
L19722 22056
L19694 22028
L19638 22000
L19553 22000
L19497 22028
L19469 22056
L19441 22112
L19441 22337
L20031 22337
L20031 22140
L20003 22084
L19975 22056
L19919 22028
L19863 22028
L19806 22056
L19778 22084
L19750 22140
L19750 22337
" />
<path d="M20031 21634
L20031 21521
L20003 21465
L19947 21409
L19835 21381
L19638 21381
L19525 21409
L19469 21465
L19441 21521
L19441 21634
L19469 21690
L19525 21746
L19638 21775
L19835 21775
L19947 21746
L20003 21690
L20031 21634
" />
<path d="M19610 21156
L19610 20875
" />
<path d="M19441 21212
L20031 21015
L19441 20818
" />
<path d="M19441 20284
L19722 20481
" />
<path d="M19441 20622
L20031 20622
L20031 20397
L20003 20340
L19975 20312
L19919 20284
L19835 20284
L19778 20312
L19750 20340
L19722 20397
L19722 20622
" />
<path d="M19441 20031
L20031 20031
L20031 19890
L20003 19806
L19947 19750
L19891 19722
L19778 19694
L19694 19694
L19581 19722
L19525 19750
L19469 19806
L19441 19890
L19441 20031
" />
<path d="M25346 25065
L25628 25262
" />
<path d="M25346 25402
L25937 25402
L25937 25177
L25909 25121
L25881 25093
L25824 25065
L25740 25065
L25684 25093
L25656 25121
L25628 25177
L25628 25402
" />
<path d="M25656 24812
L25656 24615
" />
<path d="M25346 24530
L25346 24812
L25937 24812
L25937 24530
" />
<path d="M25346 23996
L25346 24277
L25937 24277
" />
<path d="M25515 23827
L25515 23546
" />
<path d="M25346 23884
L25937 23687
L25346 23490
" />
<path d="M25628 23181
L25346 23181
" />
<path d="M25937 23377
L25628 23181
L25937 22984
" />
<path d="M25346 22056
L25346 22337
L25937 22337
" />
<path d="M25656 21859
L25656 21662
" />
<path d="M25346 21578
L25346 21859
L25937 21859
L25937 21578
" />
<path d="M25346 21325
L25937 21325
L25937 21184
L25909 21100
L25853 21043
L25796 21015
L25684 20987
L25599 20987
L25487 21015
L25431 21043
L25374 21100
L25346 21184
L25346 21325
" />
<path d="M25374 20762
L25346 20706
L25346 20593
L25374 20537
L25431 20509
L25459 20509
L25515 20537
L25543 20593
L25543 20678
L25571 20734
L25628 20762
L25656 20762
L25712 20734
L25740 20678
L25740 20593
L25712 20537
" />
<path d="M28299 25065
L28580 25262
" />
<path d="M28299 25402
L28890 25402
L28890 25177
L28862 25121
L28833 25093
L28777 25065
L28693 25065
L28637 25093
L28608 25121
L28580 25177
L28580 25402
" />
<path d="M28608 24615
L28608 24812
" />
<path d="M28299 24812
L28890 24812
L28890 24530
" />
<path d="M28890 23743
L28890 23631
L28862 23574
L28805 23518
L28693 23490
L28496 23490
L28383 23518
L28327 23574
L28299 23631
L28299 23743
L28327 23799
L28383 23856
L28496 23884
L28693 23884
L28805 23856
L28862 23799
L28890 23743
" />
<path d="M28299 23237
L28890 23237
" />
<path d="M28299 22899
L28637 23152
" />
<path d="M28890 22899
L28552 23237
" />
<path d="M33917 23416
L34114 23135
" />
<path d="M34254 23416
L34254 22826
L34029 22826
L33973 22854
L33945 22882
L33917 22938
L33917 23023
L33945 23079
L33973 23107
L34029 23135
L34254 23135
" />
<path d="M33467 23107
L33664 23107
" />
<path d="M33664 23416
L33664 22826
L33383 22826
" />
<path d="M32736 23388
L32651 23416
L32511 23416
L32455 23388
L32427 23360
L32398 23304
L32398 23248
L32427 23191
L32455 23163
L32511 23135
L32623 23107
L32680 23079
L32708 23051
L32736 22994
L32736 22938
L32708 22882
L32680 22854
L32623 22826
L32483 22826
L32398 22854
" />
<path d="M32145 23107
L31948 23107
" />
<path d="M31864 23416
L32145 23416
L32145 22826
L31864 22826
" />
<path d="M31611 23416
L31611 22826
L31274 23416
L31274 22826
" />
<path d="M31020 23388
L30936 23416
L30795 23416
L30739 23388
L30711 23360
L30683 23304
L30683 23248
L30711 23191
L30739 23163
L30795 23135
L30908 23107
L30964 23079
L30992 23051
L31020 22994
L31020 22938
L30992 22882
L30964 22854
L30908 22826
L30767 22826
L30683 22854
" />
<path d="M30430 23107
L30233 23107
" />
<path d="M30149 23416
L30430 23416
L30430 22826
L30149 22826
" />
<path d="M34254 24420
L34254 23830
L34114 23830
L34029 23858
L33973 23914
L33945 23970
L33917 24083
L33917 24167
L33945 24280
L33973 24336
L34029 24392
L34114 24420
L34254 24420
" />
<path d="M33664 24420
L33664 23830
" />
<path d="M33411 24392
L33326 24420
L33186 24420
L33130 24392
L33101 24364
L33073 24308
L33073 24251
L33101 24195
L33130 24167
L33186 24139
L33298 24111
L33355 24083
L33383 24055
L33411 23998
L33411 23942
L33383 23886
L33355 23858
L33298 23830
L33158 23830
L33073 23858
" />
<path d="M32848 24251
L32567 24251
" />
<path d="M32905 24420
L32708 23830
L32511 24420
" />
<path d="M32117 24111
L32033 24139
L32005 24167
L31977 24223
L31977 24308
L32005 24364
L32033 24392
L32089 24420
L32314 24420
L32314 23830
L32117 23830
L32061 23858
L32033 23886
L32005 23942
L32005 23998
L32033 24055
L32061 24083
L32117 24111
L32314 24111
" />
<path d="M31442 24420
L31723 24420
L31723 23830
" />
<path d="M31245 24111
L31049 24111
" />
<path d="M30964 24420
L31245 24420
L31245 23830
L30964 23830
" />
<path d="M33917 19479
L34114 19198
" />
<path d="M34254 19479
L34254 18889
L34029 18889
L33973 18917
L33945 18945
L33917 19001
L33917 19086
L33945 19142
L33973 19170
L34029 19198
L34254 19198
" />
<path d="M33467 19170
L33664 19170
" />
<path d="M33664 19479
L33664 18889
L33383 18889
" />
<path d="M32736 19451
L32651 19479
L32511 19479
L32455 19451
L32427 19423
L32398 19367
L32398 19311
L32427 19254
L32455 19226
L32511 19198
L32623 19170
L32680 19142
L32708 19114
L32736 19057
L32736 19001
L32708 18945
L32680 18917
L32623 18889
L32483 18889
L32398 18917
" />
<path d="M32145 19170
L31948 19170
" />
<path d="M31864 19479
L32145 19479
L32145 18889
L31864 18889
" />
<path d="M31611 19479
L31611 18889
L31274 19479
L31274 18889
" />
<path d="M31020 19451
L30936 19479
L30795 19479
L30739 19451
L30711 19423
L30683 19367
L30683 19311
L30711 19254
L30739 19226
L30795 19198
L30908 19170
L30964 19142
L30992 19114
L31020 19057
L31020 19001
L30992 18945
L30964 18917
L30908 18889
L30767 18889
L30683 18917
" />
<path d="M30430 19170
L30233 19170
" />
<path d="M30149 19479
L30430 19479
L30430 18889
L30149 18889
" />
<path d="M34058 20174
L33973 20202
L33945 20230
L33917 20286
L33917 20371
L33945 20427
L33973 20455
L34029 20483
L34254 20483
L34254 19893
L34058 19893
L34001 19921
L33973 19949
L33945 20005
L33945 20061
L33973 20118
L34001 20146
L34058 20174
L34254 20174
" />
<path d="M33551 19893
L33439 19893
L33383 19921
L33326 19977
L33298 20089
L33298 20286
L33326 20399
L33383 20455
L33439 20483
L33551 20483
L33608 20455
L33664 20399
L33692 20286
L33692 20089
L33664 19977
L33608 19921
L33551 19893
" />
<path d="M33073 20314
L32792 20314
" />
<path d="M33130 20483
L32933 19893
L32736 20483
" />
<path d="M32202 20483
L32398 20202
" />
<path d="M32539 20483
L32539 19893
L32314 19893
L32258 19921
L32230 19949
L32202 20005
L32202 20089
L32230 20146
L32258 20174
L32314 20202
L32539 20202
" />
<path d="M31948 20483
L31948 19893
L31808 19893
L31723 19921
L31667 19977
L31639 20033
L31611 20146
L31611 20230
L31639 20343
L31667 20399
L31723 20455
L31808 20483
L31948 20483
" />
<path d="M34430 15560
L34430 15110
" />
<path d="M34205 15335
L34655 15335
" />
<path d="M34205 14519
L34205 14857
" />
<path d="M34205 14688
L34795 14688
L34711 14744
L34655 14800
L34626 14857
" />
<path d="M34739 14294
L34767 14266
L34795 14210
L34795 14069
L34767 14013
L34739 13985
L34683 13957
L34626 13957
L34542 13985
L34205 14322
L34205 13957
" />
<path d="M34795 13788
L34205 13591
L34795 13394
" />
<path d="M34430 13197
L34430 12748
" />
</g>
<g style="fill:#000000; fill-opacity:0.0; 
stroke:#000000; stroke-width:47.2441; stroke-opacity:1; 
stroke-linecap:round; stroke-linejoin:round;">
<path d="M80440 33883
L79917 33883
" />
<path d="M80440 34407
L80440 33883
" />
<path d="M79393 34907
L80440 34907
" />
<path d="M79393 38931
L79393 34907
" />
<path d="M80440 38931
L79393 38931
" />
<path d="M80440 34907
L80440 38931
" />
<path d="M45917 32407
L48917 32407
" />
<path d="M48917 40407
L45917 40407
" />
<path d="M48417 40407
L48417 32407
" />
<path d="M45917 32407
L45917 40407
" />
<path d="M48917 32407
L48917 40407
" />
<path d="M48917 41407
L48917 49407
" />
<path d="M45917 41407
L45917 49407
" />
<path d="M48417 49407
L48417 41407
" />
<path d="M48917 49407
L45917 49407
" />
<path d="M45917 41407
L48917 41407
" />
<path d="M55417 21407
L49417 21407
" />
<path d="M55417 18407
L49417 18407
" />
<path d="M55417 20907
L49417 20907
" />
<path d="M49417 21407
L49417 18407
" />
<path d="M55417 21407
L55417 18407
" />
<path d="M48917 23407
L48917 31407
" />
<path d="M45917 23407
L45917 31407
" />
<path d="M48417 31407
L48417 23407
" />
<path d="M48917 31407
L45917 31407
" />
<path d="M45917 23407
L48917 23407
" />
<path d="M7401 7942
L7401 9840
" />
<path d="M8432 7942
L8432 9840
" />
<path d="M7401 7942
L7525 7942
" />
<path d="M8309 7942
L8432 7942
" />
<path d="M7401 9840
L7525 9840
" />
<path d="M8309 9840
L8432 9840
" />
<path d="M20684 25246
L22149 25246
" />
<path d="M20684 24568
L22149 24568
" />
<path d="M20684 23246
L22149 23246
" />
<path d="M20684 22568
L22149 22568
" />
<path d="M6755 16639
L6755 15175
" />
<path d="M6078 16639
L6078 15175
" />
<path d="M27078 20175
L27078 21639
" />
<path d="M27755 20175
L27755 21639
" />
<path d="M20684 22246
L22149 22246
" />
<path d="M20684 21568
L22149 21568
" />
<path d="M20684 24246
L22149 24246
" />
<path d="M20684 23568
L22149 23568
" />
<path d="M5078 20675
L5078 22139
" />
<path d="M5755 20675
L5755 22139
" />
<path d="M4385 10636
L4980 10636
" />
<path d="M4385 9179
L4980 9179
" />
<path d="M4980 7891
L4980 11923
" />
<path d="M4385 11923
L6212 11923
" />
<path d="M4385 7891
L6212 7891
" />
<path d="M6212 7891
L6212 11923
" />
<path d="M4385 7891
L4385 11923
" />
<path d="M5940 23383
L5417 23383
" />
<path d="M5940 23907
L5940 23383
" />
<path d="M4893 24407
L5940 24407
" />
<path d="M4893 25431
L4893 24407
" />
<path d="M5940 25431
L4893 25431
" />
<path d="M5940 24407
L5940 25431
" />
<path d="M4893 19431
L5417 19431
" />
<path d="M4893 18907
L4893 19431
" />
<path d="M5940 18407
L4893 18407
" />
<path d="M5940 17383
L5940 18407
" />
<path d="M4893 17383
L5940 17383
" />
<path d="M4893 18407
L4893 17383
" />
<path d="M27940 23383
L27417 23383
" />
<path d="M27940 23907
L27940 23383
" />
<path d="M26893 24407
L27940 24407
" />
<path d="M26893 25431
L26893 24407
" />
<path d="M27940 25431
L26893 25431
" />
<path d="M27940 24407
L27940 25431
" />
<path d="M7940 24407
L7940 25431
" />
<path d="M7940 25431
L6893 25431
" />
<path d="M6893 25431
L6893 24407
" />
<path d="M6893 24407
L7940 24407
" />
<path d="M7940 23907
L7940 23383
" />
<path d="M7940 23383
L7417 23383
" />
<path d="M18940 20383
L18417 20383
" />
<path d="M18940 20907
L18940 20383
" />
<path d="M17893 21407
L18940 21407
" />
<path d="M17893 25431
L17893 21407
" />
<path d="M18940 25431
L17893 25431
" />
<path d="M18940 21407
L18940 25431
" />
<path d="M29893 22431
L30417 22431
" />
<path d="M29893 21907
L29893 22431
" />
<path d="M29893 21407
L30940 21407
" />
<path d="M30940 21407
L30940 19383
" />
<path d="M29893 21407
L29893 19383
" />
<path d="M29893 19383
L30940 19383
" />
</g>
<g style="fill:#000000; fill-opacity:0.0; 
stroke:#000000; stroke-width:59.0551; stroke-opacity:1; 
stroke-linecap:round; stroke-linejoin:round;">
<path d="M25826 17576
L25826 17340
" />
<path d="M21417 17576
L25826 17576
" />
<path d="M17007 17576
L17007 17458
" />
<path d="M21456 17576
L17007 17576
" />
<path d="M25826 16238
L25826 16513
" />
<path d="M21417 16238
L25826 16238
" />
<path d="M25826 17379
L25826 17301
" />
<path d="M17007 16238
L17007 16356
" />
<path d="M21417 16238
L17007 16238
" />
<path d="M17991 17576
L17991 17301
" />
<path d="M17991 16238
L17991 16513
" />
</g>
<g style="fill:#000000; fill-opacity:0.0; 
stroke:#000000; stroke-width:47.2441; stroke-opacity:1; 
stroke-linecap:round; stroke-linejoin:round;">
<path d="M6893 18407
L6893 17383
" />
<path d="M6893 17383
L7940 17383
" />
<path d="M7940 17383
L7940 18407
" />
<path d="M7940 18407
L6893 18407
" />
<path d="M6893 18907
L6893 19431
" />
<path d="M6893 19431
L7417 19431
" />
<path d="M29893 24407
L29893 23383
" />
<path d="M29893 23383
L30940 23383
" />
<path d="M30940 23383
L30940 24407
" />
<path d="M30940 24407
L29893 24407
" />
<path d="M29893 24907
L29893 25431
" />
<path d="M29893 25431
L30417 25431
" />
<path d="M30917 16407
L30917 12407
" />
<path d="M33917 16407
L30917 16407
" />
<path d="M33917 12407
L33917 16407
" />
<path d="M30917 12407
L33917 12407
" />
<path d="M31417 12407
L31417 16407
" />
<path d="M25411 5527
L25923 5527
" />
<path d="M25667 5291
L25667 5763
" />
<path d="M25570 8748
L25764 8748
" />
<path d="M25431 8732
L25902 8732
" />
<path d="M25346 8716
L25987 8716
" />
<path d="M25280 8701
L26054 8701
" />
<path d="M25223 8685
L26110 8685
" />
<path d="M25173 8669
L26160 8669
" />
<path d="M25128 8653
L26206 8653
" />
<path d="M25087 8638
L26247 8638
" />
<path d="M25049 8622
L26285 8622
" />
<path d="M25013 8606
L26320 8606
" />
<path d="M24980 8590
L26354 8590
" />
<path d="M24948 8575
L26386 8575
" />
<path d="M24918 8559
L26415 8559
" />
<path d="M24889 8543
L26444 8543
" />
<path d="M24862 8527
L26471 8527
" />
<path d="M24836 8512
L26497 8512
" />
<path d="M26052 8496
L26522 8496
" />
<path d="M24811 8496
L25281 8496
" />
<path d="M26052 8480
L26546 8480
" />
<path d="M24787 8480
L25281 8480
" />
<path d="M26052 8464
L26569 8464
" />
<path d="M24764 8464
L25281 8464
" />
<path d="M26052 8449
L26591 8449
" />
<path d="M24742 8449
L25281 8449
" />
<path d="M26052 8433
L26613 8433
" />
<path d="M24720 8433
L25281 8433
" />
<path d="M26052 8417
L26634 8417
" />
<path d="M24699 8417
L25281 8417
" />
<path d="M26052 8401
L26654 8401
" />
<path d="M24679 8401
L25281 8401
" />
<path d="M26052 8386
L26673 8386
" />
<path d="M24660 8386
L25281 8386
" />
<path d="M26052 8370
L26692 8370
" />
<path d="M24641 8370
L25281 8370
" />
<path d="M26052 8354
L26711 8354
" />
<path d="M24623 8354
L25281 8354
" />
<path d="M26052 8338
L26728 8338
" />
<path d="M24605 8338
L25281 8338
" />
<path d="M26052 8323
L26745 8323
" />
<path d="M24588 8323
L25281 8323
" />
<path d="M26052 8307
L26762 8307
" />
<path d="M24571 8307
L25281 8307
" />
<path d="M26052 8291
L26778 8291
" />
<path d="M24555 8291
L25281 8291
" />
<path d="M26052 8275
L26795 8275
" />
<path d="M24539 8275
L25281 8275
" />
<path d="M26052 8260
L26810 8260
" />
<path d="M24523 8260
L25281 8260
" />
<path d="M26052 8244
L26825 8244
" />
<path d="M24508 8244
L25281 8244
" />
<path d="M26052 8228
L26839 8228
" />
<path d="M24494 8228
L25281 8228
" />
<path d="M26052 8212
L26854 8212
" />
<path d="M24480 8212
L25281 8212
" />
<path d="M26052 8197
L26867 8197
" />
<path d="M24466 8197
L25281 8197
" />
<path d="M26052 8181
L26881 8181
" />
<path d="M24452 8181
L25281 8181
" />
<path d="M26052 8165
L26894 8165
" />
<path d="M24439 8165
L25281 8165
" />
<path d="M26052 8150
L26907 8150
" />
<path d="M24427 8150
L25281 8150
" />
<path d="M26052 8134
L26919 8134
" />
<path d="M24414 8134
L25281 8134
" />
<path d="M26052 8118
L26932 8118
" />
<path d="M24402 8118
L25281 8118
" />
<path d="M26052 8102
L26943 8102
" />
<path d="M24390 8102
L25281 8102
" />
<path d="M26052 8087
L26955 8087
" />
<path d="M24378 8087
L25281 8087
" />
<path d="M26052 8071
L26966 8071
" />
<path d="M24367 8071
L25281 8071
" />
<path d="M26052 8055
L26977 8055
" />
<path d="M24356 8055
L25281 8055
" />
<path d="M26052 8039
L26988 8039
" />
<path d="M24345 8039
L25281 8039
" />
<path d="M26052 8024
L26999 8024
" />
<path d="M24335 8024
L25281 8024
" />
<path d="M26052 8008
L27008 8008
" />
<path d="M24325 8008
L25281 8008
" />
<path d="M26052 7992
L27019 7992
" />
<path d="M24315 7992
L25281 7992
" />
<path d="M26052 7976
L27028 7976
" />
<path d="M24305 7976
L25281 7976
" />
<path d="M26052 7961
L27038 7961
" />
<path d="M24296 7961
L25281 7961
" />
<path d="M26052 7945
L27047 7945
" />
<path d="M24287 7945
L25281 7945
" />
<path d="M26052 7929
L27056 7929
" />
<path d="M24278 7929
L25281 7929
" />
<path d="M26052 7913
L27064 7913
" />
<path d="M24269 7913
L25281 7913
" />
<path d="M26052 7898
L27073 7898
" />
<path d="M24260 7898
L25281 7898
" />
<path d="M26052 7882
L27081 7882
" />
<path d="M24252 7882
L25281 7882
" />
<path d="M26052 7866
L27089 7866
" />
<path d="M24244 7866
L25281 7866
" />
<path d="M26052 7850
L27097 7850
" />
<path d="M24236 7850
L25281 7850
" />
<path d="M26052 7835
L27104 7835
" />
<path d="M24229 7835
L25281 7835
" />
<path d="M26052 7819
L27112 7819
" />
<path d="M24221 7819
L25281 7819
" />
<path d="M26052 7803
L27119 7803
" />
<path d="M24214 7803
L25281 7803
" />
<path d="M26052 7787
L27126 7787
" />
<path d="M24207 7787
L25281 7787
" />
<path d="M26052 7772
L27133 7772
" />
<path d="M24200 7772
L25281 7772
" />
<path d="M26052 7756
L27139 7756
" />
<path d="M24194 7756
L25281 7756
" />
<path d="M26052 7740
L27146 7740
" />
<path d="M24187 7740
L25281 7740
" />
<path d="M24181 7724
L27152 7724
" />
<path d="M24175 7709
L27158 7709
" />
<path d="M24169 7693
L27164 7693
" />
<path d="M24164 7677
L27170 7677
" />
<path d="M24158 7661
L27175 7661
" />
<path d="M24153 7646
L27180 7646
" />
<path d="M24148 7630
L27186 7630
" />
<path d="M24143 7614
L27190 7614
" />
<path d="M24138 7598
L27195 7598
" />
<path d="M24134 7583
L27200 7583
" />
<path d="M24129 7567
L27204 7567
" />
<path d="M24125 7551
L27208 7551
" />
<path d="M24121 7535
L27212 7535
" />
<path d="M24117 7520
L27216 7520
" />
<path d="M24113 7504
L27220 7504
" />
<path d="M24110 7488
L27224 7488
" />
<path d="M24106 7472
L27227 7472
" />
<path d="M24103 7457
L27230 7457
" />
<path d="M24100 7441
L27233 7441
" />
<path d="M24097 7425
L27236 7425
" />
<path d="M24094 7409
L27239 7409
" />
<path d="M24092 7393
L27241 7393
" />
<path d="M24089 7377
L27244 7377
" />
<path d="M24087 7362
L27246 7362
" />
<path d="M24085 7346
L27248 7346
" />
<path d="M24083 7330
L27250 7330
" />
<path d="M24081 7314
L27252 7314
" />
<path d="M24080 7299
L27254 7299
" />
<path d="M24078 7283
L27255 7283
" />
<path d="M24077 7267
L27256 7267
" />
<path d="M24076 7251
L27258 7251
" />
<path d="M24075 7236
L27258 7236
" />
<path d="M24074 7220
L27260 7220
" />
<path d="M24073 7204
L27260 7204
" />
<path d="M24073 7188
L27261 7188
" />
<path d="M24072 7173
L27261 7173
" />
<path d="M24072 7157
L27261 7157
" />
<path d="M24072 7141
L27261 7141
" />
<path d="M25202.6 8683.5 A1610.24 1610.24 0.0 0 0 26130.7 8683.8 " />
<path d="M26130.7 8683.8 A1610.24 1610.24 0.0 0 0 26131.7 5599.97 " />
<path d="M25202.6 5599.97 A1610.24 1610.24 0.0 0 0 25203.6 8683.8 " />
<path d="M9365 9356
L16468 9356
" />
<path d="M9365 26458
L9365 9356
" />
<path d="M16468 26458
L9365 26458
" />
<path d="M15417 25407
L16468 25407
" />
<path d="M15417 11407
L15417 25407
" />
<path d="M15417 11407
L16468 11407
" />
<path d="M10417 25407
L9365 25407
" />
<path d="M10417 10407
L10417 25407
" />
<path d="M10417 10407
L9365 10407
" />
<path d="M16468 9356
L16468 10407
" />
<path d="M16468 11407
L16468 26458
" />
<path d="M15417 10407
L16468 10407
" />
<path d="M15417 11407
L15417 10407
" />
<path d="M27862 12360
L28972 12360
" />
<path d="M28972 12360
L28972 14454
" />
<path d="M28972 14454
L27862 14454
" />
<path d="M27862 14454
L27862 12360
" />
<path d="M28417 11911
L28417 12360
" />
<path d="M28417 14903
L28417 14454
" />
<path d="M27862 12690
L28972 12690
" />
<path d="M25133 14352
L25133 15462
" />
<path d="M22921 14907
L23369 14907
" />
<path d="M25913 14907
L25464 14907
" />
<path d="M23369 14352
L25464 14352
" />
<path d="M23369 15462
L23369 14352
" />
<path d="M25464 15462
L23369 15462
" />
<path d="M25464 14352
L25464 15462
" />
<path d="M24940 21407
L24940 25431
" />
<path d="M24940 25431
L23893 25431
" />
<path d="M23893 25431
L23893 21407
" />
<path d="M23893 21407
L24940 21407
" />
<path d="M24940 20907
L24940 20383
" />
<path d="M24940 20383
L24417 20383
" />
<path d="M69862 25190
L70972 25190
" />
<path d="M70417 27403
L70417 26954
" />
<path d="M70417 24411
L70417 24860
" />
<path d="M69862 26954
L69862 24860
" />
<path d="M70972 26954
L69862 26954
" />
<path d="M70972 24860
L70972 26954
" />
<path d="M69862 24860
L70972 24860
" />
<path d="M69862 32190
L70972 32190
" />
<path d="M70417 34403
L70417 33954
" />
<path d="M70417 31411
L70417 31860
" />
<path d="M69862 33954
L69862 31860
" />
<path d="M70972 33954
L69862 33954
" />
<path d="M70972 31860
L70972 33954
" />
<path d="M69862 31860
L70972 31860
" />
<path d="M69862 38860
L70972 38860
" />
<path d="M70972 38860
L70972 40954
" />
<path d="M70972 40954
L69862 40954
" />
<path d="M69862 40954
L69862 38860
" />
<path d="M70417 38411
L70417 38860
" />
<path d="M70417 41403
L70417 40954
" />
<path d="M69862 39190
L70972 39190
" />
<path d="M69862 45860
L70972 45860
" />
<path d="M70972 45860
L70972 47954
" />
<path d="M70972 47954
L69862 47954
" />
<path d="M69862 47954
L69862 45860
" />
<path d="M70417 45411
L70417 45860
" />
<path d="M70417 48403
L70417 47954
" />
<path d="M69862 46190
L70972 46190
" />
<path d="M78167 51157
L78167 47157
" />
<path d="M81167 51157
L78167 51157
" />
<path d="M81167 47157
L81167 51157
" />
<path d="M78167 47157
L81167 47157
" />
<path d="M78667 47157
L78667 51157
" />
<path d="M68917 28407
L68917 23407
" />
<path d="M56917 28407
L68917 28407
" />
<path d="M56917 23407
L56917 28407
" />
<path d="M68917 23407
L56917 23407
" />
<path d="M66917 24907
L66417 24907
" />
<path d="M66917 26907
L66917 24907
" />
<path d="M65917 26907
L66917 26907
" />
<path d="M65917 24907
L65917 26907
" />
<path d="M66417 24907
L65917 24907
" />
<path d="M66417 24407
L66417 24907
" />
<path d="M66917 24407
L66417 24407
" />
<path d="M66417 27407
L66917 27407
" />
<path d="M66417 26907
L66417 27407
" />
<path d="M66917 25407
L65917 25907
" />
<path d="M66917 32407
L65917 32907
" />
<path d="M66417 33907
L66417 34407
" />
<path d="M66417 34407
L66917 34407
" />
<path d="M66917 31407
L66417 31407
" />
<path d="M66417 31407
L66417 31907
" />
<path d="M66417 31907
L65917 31907
" />
<path d="M65917 31907
L65917 33907
" />
<path d="M65917 33907
L66917 33907
" />
<path d="M66917 33907
L66917 31907
" />
<path d="M66917 31907
L66417 31907
" />
<path d="M68917 30407
L56917 30407
" />
<path d="M56917 30407
L56917 35407
" />
<path d="M56917 35407
L68917 35407
" />
<path d="M68917 35407
L68917 30407
" />
<path d="M68917 42407
L68917 37407
" />
<path d="M56917 42407
L68917 42407
" />
<path d="M56917 37407
L56917 42407
" />
<path d="M68917 37407
L56917 37407
" />
<path d="M66917 38907
L66417 38907
" />
<path d="M66917 40907
L66917 38907
" />
<path d="M65917 40907
L66917 40907
" />
<path d="M65917 38907
L65917 40907
" />
<path d="M66417 38907
L65917 38907
" />
<path d="M66417 38407
L66417 38907
" />
<path d="M66917 38407
L66417 38407
" />
<path d="M66417 41407
L66917 41407
" />
<path d="M66417 40907
L66417 41407
" />
<path d="M66917 39407
L65917 39907
" />
<path d="M66917 46407
L65917 46907
" />
<path d="M66417 47907
L66417 48407
" />
<path d="M66417 48407
L66917 48407
" />
<path d="M66917 45407
L66417 45407
" />
<path d="M66417 45407
L66417 45907
" />
<path d="M66417 45907
L65917 45907
" />
<path d="M65917 45907
L65917 47907
" />
<path d="M65917 47907
L66917 47907
" />
<path d="M66917 47907
L66917 45907
" />
<path d="M66917 45907
L66417 45907
" />
<path d="M68917 44407
L56917 44407
" />
<path d="M56917 44407
L56917 49407
" />
<path d="M56917 49407
L68917 49407
" />
<path d="M68917 49407
L68917 44407
" />
<path d="M72376.1 25065.5 A946.521 946.521 0.0 0 0 72208.5 25198.8 " />
<path d="M72208.5 26616.1 A946.521 946.521 0.0 0 0 72376.1 26749.5 " />
<path d="M73763.6 25336.6 A945.292 945.292 0.0 0 0 73448.7 25021.7 " />
<path d="M73448.7 26793.3 A945.292 945.292 0.0 0 0 73763.6 26478.4 " />
<path d="M72208 26576
L72208 25238
" />
<path d="M72376.1 32065.5 A946.521 946.521 0.0 0 0 72208.5 32198.8 " />
<path d="M72208.5 33616.1 A946.521 946.521 0.0 0 0 72376.1 33749.5 " />
<path d="M73763.6 32336.6 A945.292 945.292 0.0 0 0 73448.7 32021.7 " />
<path d="M73448.7 33793.3 A945.292 945.292 0.0 0 0 73763.6 33478.4 " />
<path d="M72208 33576
L72208 32238
" />
<path d="M72208 40576
L72208 39238
" />
<path d="M73448.7 40793.3 A945.292 945.292 0.0 0 0 73763.6 40478.4 " />
<path d="M73763.6 39336.6 A945.292 945.292 0.0 0 0 73448.7 39021.7 " />
<path d="M72208.5 40616.1 A946.521 946.521 0.0 0 0 72376.1 40749.5 " />
<path d="M72376.1 39065.5 A946.521 946.521 0.0 0 0 72208.5 39198.8 " />
<path d="M72208 47576
L72208 46238
" />
<path d="M73448.7 47793.3 A945.292 945.292 0.0 0 0 73763.6 47478.4 " />
<path d="M73763.6 46336.6 A945.292 945.292 0.0 0 0 73448.7 46021.7 " />
<path d="M72208.5 47616.1 A946.521 946.521 0.0 0 0 72376.1 47749.5 " />
<path d="M72376.1 46065.5 A946.521 946.521 0.0 0 0 72208.5 46198.8 " />
<path d="M77149 25568
L75684 25568
" />
<path d="M77149 26246
L75684 26246
" />
<path d="M77149 33246
L75684 33246
" />
<path d="M77149 32568
L75684 32568
" />
<path d="M77149 40246
L75684 40246
" />
<path d="M77149 39568
L75684 39568
" />
<path d="M77149 46568
L75684 46568
" />
<path d="M77149 47246
L75684 47246
" />
<path d="M61350 3265
L61350 3141
" />
<path d="M61350 4173
L61350 4049
" />
<path d="M59452 3265
L59452 3141
" />
<path d="M59452 4173
L59452 4049
" />
<path d="M59452 3141
L61350 3141
" />
<path d="M59452 4173
L61350 4173
" />
<path d="M59234 11049
L59234 11173
" />
<path d="M59234 10141
L59234 10265
" />
<path d="M61131 11049
L61131 11173
" />
<path d="M61131 10141
L61131 10265
" />
<path d="M61131 11173
L59234 11173
" />
<path d="M61131 10141
L59234 10141
" />
<path d="M66484 7173
L68381 7173
" />
<path d="M66484 6141
L68381 6141
" />
<path d="M66484 7173
L66484 7049
" />
<path d="M66484 6265
L66484 6141
" />
<path d="M68381 7173
L68381 7049
" />
<path d="M68381 6265
L68381 6141
" />
<path d="M67440 1931
L67440 1407
" />
<path d="M66917 1931
L67440 1931
" />
<path d="M66417 883
L66417 1931
" />
<path d="M65393 883
L66417 883
" />
<path d="M65393 1931
L65393 883
" />
<path d="M66417 1931
L65393 1931
" />
<path d="M59143 883
L59143 1407
" />
<path d="M59667 883
L59143 883
" />
<path d="M60167 883
L60167 1931
" />
<path d="M60167 1931
L62190 1931
" />
<path d="M60167 883
L62190 883
" />
<path d="M62190 883
L62190 1931
" />
<path d="M70440 7157
L70440 8181
" />
<path d="M70440 8181
L69393 8181
" />
<path d="M69393 8181
L69393 7157
" />
<path d="M69393 7157
L70440 7157
" />
<path d="M70440 6657
L70440 6133
" />
<path d="M70440 6133
L69917 6133
" />
<path d="M68940 5931
L68940 5407
" />
<path d="M68417 5931
L68940 5931
" />
<path d="M67917 4883
L67917 5931
" />
<path d="M66893 4883
L67917 4883
" />
<path d="M66893 5931
L66893 4883
" />
<path d="M67917 5931
L66893 5931
" />
<path d="M66899 13496
L65434 13496
" />
<path d="M66899 12818
L65434 12818
" />
<path d="M64005 3139
L64005 1675
" />
<path d="M63328 3139
L63328 1675
" />
<path d="M65184 3746
L66649 3746
" />
<path d="M65184 3068
L66649 3068
" />
<path d="M63578 8389
L63578 6925
" />
<path d="M64255 8389
L64255 6925
" />
<path d="M65078 7389
L65078 5925
" />
<path d="M65755 7389
L65755 5925
" />
<path d="M70838 11407
L70539 11407
" />
<path d="M70240 10919
L70240 11895
" />
<path d="M70838 10919
L70838 11895
" />
<path d="M70838 11895
L70240 11895
" />
<path d="M70838 10919
L70240 10919
" />
<path d="M62692 10433
L62692 12382
" />
<path d="M70239 10433
L70239 12382
" />
<path d="M70239 12382
L62692 12382
" />
<path d="M70239 10433
L62692 10433
" />
<path d="M58350 5110
L62484 5110
" />
<path d="M58350 9204
L58350 5110
" />
<path d="M62484 9204
L58350 9204
" />
<path d="M62484 5110
L62484 9204
" />
<path d="M59531 5133
L60023 5133
" />
<path d="M59531 9181
L59531 5133
" />
<path d="M61302 9181
L59531 9181
" />
<path d="M61302 5133
L61302 9181
" />
<path d="M60810 5133
L61302 5133
" />
<path d="M60023.5 5133.86 A393.701 393.701 0.0 0 0 60810.9 5133.86 " />
<path d="M67650.4 7711.22 A657.769 657.769 0.0 1 0 67662.2 8590.55 " />
<path d="M67950 7303
L67717 7478
" />
<path d="M67950 7653
L67950 7303
" />
<path d="M67717 7478
L67950 7653
" />
<path d="M67717 7653
L67717 7303
" />
</g>
<g style="fill:#000000; fill-opacity:0.0; 
stroke:#000000; stroke-width:59.0551; stroke-opacity:1; 
stroke-linecap:round; stroke-linejoin:round;">
<path d="M80423 33274
L80423 33555
L80442 33612
L80479 33649
L80535 33668
L80573 33668
" />
<path d="M80254 33312
L80235 33293
L80198 33274
L80104 33274
L80067 33293
L80048 33312
L80029 33349
L80029 33387
L80048 33443
L80273 33668
L80029 33668
" />
<path d="M79785 33274
L79748 33274
L79710 33293
L79692 33312
L79673 33349
L79654 33424
L79654 33518
L79673 33593
L79692 33630
L79710 33649
L79748 33668
L79785 33668
L79823 33649
L79842 33630
L79860 33593
L79879 33518
L79879 33424
L79860 33349
L79842 33312
L79823 33293
L79785 33274
" />
<path d="M79504 33312
L79485 33293
L79448 33274
L79354 33274
L79317 33293
L79298 33312
L79279 33349
L79279 33387
L79298 33443
L79523 33668
L79279 33668
" />
<path d="M45742 36905
L45461 36905
L45405 36924
L45368 36962
L45349 37018
L45349 37055
" />
<path d="M45705 36737
L45724 36718
L45742 36680
L45742 36587
L45724 36549
L45705 36530
L45668 36512
L45630 36512
L45574 36530
L45349 36755
L45349 36512
" />
<path d="M45742 36268
L45742 36230
L45724 36193
L45705 36174
L45668 36155
L45593 36137
L45499 36137
L45424 36155
L45386 36174
L45368 36193
L45349 36230
L45349 36268
L45368 36305
L45386 36324
L45424 36343
L45499 36362
L45593 36362
L45668 36343
L45705 36324
L45724 36305
L45742 36268
" />
<path d="M45742 35780
L45742 35968
L45555 35987
L45574 35968
L45593 35930
L45593 35837
L45574 35799
L45555 35780
L45518 35762
L45424 35762
L45386 35780
L45368 35799
L45349 35837
L45349 35930
L45368 35968
L45386 35987
" />
<path d="M45742 45905
L45461 45905
L45405 45924
L45368 45962
L45349 46018
L45349 46055
" />
<path d="M45705 45737
L45724 45718
L45742 45680
L45742 45587
L45724 45549
L45705 45530
L45668 45512
L45630 45512
L45574 45530
L45349 45755
L45349 45512
" />
<path d="M45742 45268
L45742 45230
L45724 45193
L45705 45174
L45668 45155
L45593 45137
L45499 45137
L45424 45155
L45386 45174
L45368 45193
L45349 45230
L45349 45268
L45368 45305
L45386 45324
L45424 45343
L45499 45362
L45593 45362
L45668 45343
L45705 45324
L45724 45305
L45742 45268
" />
<path d="M45611 44799
L45349 44799
" />
<path d="M45761 44893
L45480 44987
L45480 44743
" />
<path d="M52935 17861
L52935 18142
L52953 18198
L52991 18236
L53047 18254
L53085 18254
" />
<path d="M52766 17898
L52747 17879
L52710 17861
L52616 17861
L52578 17879
L52560 17898
L52541 17936
L52541 17973
L52560 18029
L52785 18254
L52541 18254
" />
<path d="M52297 17861
L52260 17861
L52222 17879
L52204 17898
L52185 17936
L52166 18011
L52166 18104
L52185 18179
L52204 18217
L52222 18236
L52260 18254
L52297 18254
L52335 18236
L52353 18217
L52372 18179
L52391 18104
L52391 18011
L52372 17936
L52353 17898
L52335 17879
L52297 17861
" />
<path d="M52035 17861
L51791 17861
L51922 18011
L51866 18011
L51829 18029
L51810 18048
L51791 18086
L51791 18179
L51810 18217
L51829 18236
L51866 18254
L51979 18254
L52016 18236
L52035 18217
" />
<path d="M45742 27905
L45461 27905
L45405 27924
L45368 27962
L45349 28018
L45349 28055
" />
<path d="M45705 27737
L45724 27718
L45742 27680
L45742 27587
L45724 27549
L45705 27530
L45668 27512
L45630 27512
L45574 27530
L45349 27755
L45349 27512
" />
<path d="M45742 27268
L45742 27230
L45724 27193
L45705 27174
L45668 27155
L45593 27137
L45499 27137
L45424 27155
L45386 27174
L45368 27193
L45349 27230
L45349 27268
L45368 27305
L45386 27324
L45424 27343
L45499 27362
L45593 27362
L45668 27343
L45705 27324
L45724 27305
L45742 27268
" />
<path d="M45742 26799
L45742 26874
L45724 26912
L45705 26930
L45649 26968
L45574 26987
L45424 26987
L45386 26968
L45368 26949
L45349 26912
L45349 26837
L45368 26799
L45386 26780
L45424 26762
L45518 26762
L45555 26780
L45574 26799
L45593 26837
L45593 26912
L45574 26949
L45555 26968
L45518 26987
" />
<path d="M7776 8973
L7757 8991
L7739 9048
L7739 9085
L7757 9141
L7795 9179
L7832 9198
L7907 9216
L7964 9216
L8039 9198
L8076 9179
L8114 9141
L8132 9085
L8132 9048
L8114 8991
L8095 8973
" />
<path d="M7739 8598
L7739 8823
" />
<path d="M7739 8710
L8132 8710
L8076 8748
L8039 8785
L8020 8823
" />
<path d="M21482 25085
L21614 24898
" />
<path d="M21707 25085
L21707 24691
L21557 24691
L21520 24710
L21501 24729
L21482 24766
L21482 24823
L21501 24860
L21520 24879
L21557 24898
L21707 24898
" />
<path d="M21126 24691
L21314 24691
L21332 24879
L21314 24860
L21276 24841
L21182 24841
L21145 24860
L21126 24879
L21107 24916
L21107 25010
L21126 25048
L21145 25066
L21182 25085
L21276 25085
L21314 25066
L21332 25048
" />
<path d="M21482 23085
L21614 22898
" />
<path d="M21707 23085
L21707 22691
L21557 22691
L21520 22710
L21501 22729
L21482 22766
L21482 22823
L21501 22860
L21520 22879
L21557 22898
L21707 22898
" />
<path d="M21351 22691
L21107 22691
L21239 22841
L21182 22841
L21145 22860
L21126 22879
L21107 22916
L21107 23010
L21126 23048
L21145 23066
L21182 23085
L21295 23085
L21332 23066
L21351 23048
" />
<path d="M6239 15973
L6426 16104
" />
<path d="M6239 16198
L6632 16198
L6632 16048
L6614 16010
L6595 15991
L6557 15973
L6501 15973
L6464 15991
L6445 16010
L6426 16048
L6426 16198
" />
<path d="M6632 15635
L6632 15710
L6614 15748
L6595 15766
L6539 15804
L6464 15823
L6314 15823
L6276 15804
L6257 15785
L6239 15748
L6239 15673
L6257 15635
L6276 15616
L6314 15598
L6407 15598
L6445 15616
L6464 15635
L6482 15673
L6482 15748
L6464 15785
L6445 15804
L6407 15823
" />
<path d="M27239 20973
L27426 21104
" />
<path d="M27239 21198
L27632 21198
L27632 21048
L27614 21010
L27595 20991
L27557 20973
L27501 20973
L27464 20991
L27445 21010
L27426 21048
L27426 21198
" />
<path d="M27239 20598
L27239 20823
" />
<path d="M27239 20710
L27632 20710
L27576 20748
L27539 20785
L27520 20823
" />
<path d="M21482 22085
L21614 21898
" />
<path d="M21707 22085
L21707 21691
L21557 21691
L21520 21710
L21501 21729
L21482 21766
L21482 21823
L21501 21860
L21520 21879
L21557 21898
L21707 21898
" />
<path d="M21332 21729
L21314 21710
L21276 21691
L21182 21691
L21145 21710
L21126 21729
L21107 21766
L21107 21804
L21126 21860
L21351 22085
L21107 22085
" />
<path d="M21482 24085
L21614 23898
" />
<path d="M21707 24085
L21707 23691
L21557 23691
L21520 23710
L21501 23729
L21482 23766
L21482 23823
L21501 23860
L21520 23879
L21557 23898
L21707 23898
" />
<path d="M21145 23823
L21145 24085
" />
<path d="M21239 23673
L21332 23954
L21089 23954
" />
<path d="M5239 21473
L5426 21604
" />
<path d="M5239 21698
L5632 21698
L5632 21548
L5614 21510
L5595 21491
L5557 21473
L5501 21473
L5464 21491
L5445 21510
L5426 21548
L5426 21698
" />
<path d="M5632 21341
L5632 21079
L5239 21248
" />
<path d="M4207 10207
L3888 10207
L3851 10188
L3832 10169
L3813 10132
L3813 10057
L3832 10019
L3851 10001
L3888 9982
L4207 9982
" />
<path d="M3813 9588
L3813 9813
" />
<path d="M3813 9701
L4207 9701
L4151 9738
L4113 9776
L4095 9813
" />
<path d="M5548 22774
L5548 23055
L5567 23112
L5604 23149
L5660 23168
L5698 23168
" />
<path d="M5304 22943
L5342 22924
L5360 22905
L5379 22868
L5379 22849
L5360 22812
L5342 22793
L5304 22774
L5229 22774
L5192 22793
L5173 22812
L5154 22849
L5154 22868
L5173 22905
L5192 22924
L5229 22943
L5304 22943
L5342 22962
L5360 22980
L5379 23018
L5379 23093
L5360 23130
L5342 23149
L5304 23168
L5229 23168
L5192 23149
L5173 23130
L5154 23093
L5154 23018
L5173 22980
L5192 22962
L5229 22943
" />
<path d="M5707 20002
L5707 19609
L5614 19609
L5557 19627
L5520 19665
L5501 19702
L5482 19777
L5482 19834
L5501 19909
L5520 19946
L5557 19984
L5614 20002
L5707 20002
" />
<path d="M5126 19609
L5314 19609
L5332 19796
L5314 19777
L5276 19759
L5182 19759
L5145 19777
L5126 19796
L5107 19834
L5107 19927
L5126 19965
L5145 19984
L5182 20002
L5276 20002
L5314 19984
L5332 19965
" />
<path d="M27707 23168
L27707 22774
L27614 22774
L27557 22793
L27520 22830
L27501 22868
L27482 22943
L27482 22999
L27501 23074
L27520 23112
L27557 23149
L27614 23168
L27707 23168
" />
<path d="M27332 22812
L27314 22793
L27276 22774
L27182 22774
L27145 22793
L27126 22812
L27107 22849
L27107 22887
L27126 22943
L27351 23168
L27107 23168
" />
<path d="M7548 22774
L7548 23055
L7567 23112
L7604 23149
L7660 23168
L7698 23168
" />
<path d="M7398 22774
L7135 22774
L7304 23168
" />
<path d="M18548 19774
L18548 20055
L18567 20112
L18604 20149
L18660 20168
L18698 20168
" />
<path d="M18192 19905
L18192 20168
" />
<path d="M18285 19755
L18379 20037
L18135 20037
" />
<path d="M29548 18691
L29548 18973
L29567 19029
L29604 19066
L29660 19085
L29698 19085
" />
<path d="M29379 18729
L29360 18710
L29323 18691
L29229 18691
L29192 18710
L29173 18729
L29154 18766
L29154 18804
L29173 18860
L29398 19085
L29154 19085
" />
<path d="M21548 18109
L21548 18390
L21567 18446
L21604 18484
L21660 18502
L21698 18502
" />
<path d="M21192 18109
L21267 18109
L21304 18127
L21323 18146
L21360 18202
L21379 18277
L21379 18427
L21360 18465
L21342 18484
L21304 18502
L21229 18502
L21192 18484
L21173 18465
L21154 18427
L21154 18334
L21173 18296
L21192 18277
L21229 18259
L21304 18259
L21342 18277
L21360 18296
L21379 18334
" />
<path d="M7707 20002
L7707 19609
L7614 19609
L7557 19627
L7520 19665
L7501 19702
L7482 19777
L7482 19834
L7501 19909
L7520 19946
L7557 19984
L7614 20002
L7707 20002
" />
<path d="M7145 19740
L7145 20002
" />
<path d="M7239 19590
L7332 19871
L7089 19871
" />
<path d="M29682 22941
L29682 23223
L29701 23279
L29738 23316
L29794 23335
L29832 23335
" />
<path d="M29307 22941
L29494 22941
L29513 23129
L29494 23110
L29457 23091
L29363 23091
L29326 23110
L29307 23129
L29288 23166
L29288 23260
L29307 23298
L29326 23316
L29363 23335
L29457 23335
L29494 23316
L29513 23298
" />
<path d="M30548 15441
L30548 15723
L30567 15779
L30604 15816
L30660 15835
L30698 15835
" />
<path d="M30154 15835
L30379 15835
" />
<path d="M30267 15835
L30267 15441
L30304 15498
L30342 15535
L30379 15554
" />
<path d="M23436 7207
L23417 7226
L23398 7282
L23398 7319
L23417 7376
L23454 7413
L23492 7432
L23567 7451
L23623 7451
L23698 7432
L23735 7413
L23773 7376
L23792 7319
L23792 7282
L23773 7226
L23754 7207
" />
<path d="M23754 7057
L23773 7038
L23792 7001
L23792 6907
L23773 6869
L23754 6851
L23717 6832
L23679 6832
L23623 6851
L23398 7076
L23398 6832
" />
<path d="M13198 8973
L13010 8973
" />
<path d="M13235 9085
L13104 8691
L12973 9085
" />
<path d="M12635 9085
L12860 9085
" />
<path d="M12748 9085
L12748 8691
L12785 8748
L12823 8785
L12860 8804
" />
<path d="M28239 13698
L28632 13698
L28632 13604
L28614 13548
L28576 13510
L28539 13491
L28464 13473
L28407 13473
L28332 13491
L28295 13510
L28257 13548
L28239 13604
L28239 13698
" />
<path d="M28239 13098
L28239 13323
" />
<path d="M28239 13210
L28632 13210
L28576 13248
L28539 13285
L28520 13323
" />
<path d="M24707 15085
L24707 14691
L24614 14691
L24557 14710
L24520 14748
L24501 14785
L24482 14860
L24482 14916
L24501 14991
L24520 15029
L24557 15066
L24614 15085
L24707 15085
" />
<path d="M24351 14691
L24107 14691
L24239 14841
L24182 14841
L24145 14860
L24126 14879
L24107 14916
L24107 15010
L24126 15048
L24145 15066
L24182 15085
L24295 15085
L24332 15066
L24351 15048
" />
<path d="M24548 19774
L24548 20055
L24567 20112
L24604 20149
L24660 20168
L24698 20168
" />
<path d="M24398 19774
L24154 19774
L24285 19924
L24229 19924
L24192 19943
L24173 19962
L24154 19999
L24154 20093
L24173 20130
L24192 20149
L24229 20168
L24342 20168
L24379 20149
L24398 20130
" />
<path d="M69290 26573
L69683 26573
L69683 26479
L69665 26423
L69627 26385
L69590 26366
L69515 26348
L69458 26348
L69383 26366
L69346 26385
L69308 26423
L69290 26479
L69290 26573
" />
<path d="M69646 26198
L69665 26179
L69683 26141
L69683 26048
L69665 26010
L69646 25991
L69608 25973
L69571 25973
L69515 25991
L69290 26216
L69290 25973
" />
<path d="M69683 25729
L69683 25691
L69665 25654
L69646 25635
L69608 25616
L69533 25598
L69440 25598
L69365 25616
L69327 25635
L69308 25654
L69290 25691
L69290 25729
L69308 25766
L69327 25785
L69365 25804
L69440 25823
L69533 25823
L69608 25804
L69646 25785
L69665 25766
L69683 25729
" />
<path d="M69290 25223
L69290 25448
" />
<path d="M69290 25335
L69683 25335
L69627 25373
L69590 25410
L69571 25448
" />
<path d="M69290 33573
L69683 33573
L69683 33479
L69665 33423
L69627 33385
L69590 33366
L69515 33348
L69458 33348
L69383 33366
L69346 33385
L69308 33423
L69290 33479
L69290 33573
" />
<path d="M69646 33198
L69665 33179
L69683 33141
L69683 33048
L69665 33010
L69646 32991
L69608 32973
L69571 32973
L69515 32991
L69290 33216
L69290 32973
" />
<path d="M69683 32729
L69683 32691
L69665 32654
L69646 32635
L69608 32616
L69533 32598
L69440 32598
L69365 32616
L69327 32635
L69308 32654
L69290 32691
L69290 32729
L69308 32766
L69327 32785
L69365 32804
L69440 32823
L69533 32823
L69608 32804
L69646 32785
L69665 32766
L69683 32729
" />
<path d="M69646 32448
L69665 32429
L69683 32391
L69683 32298
L69665 32260
L69646 32241
L69608 32223
L69571 32223
L69515 32241
L69290 32466
L69290 32223
" />
<path d="M69290 40573
L69683 40573
L69683 40479
L69665 40423
L69627 40385
L69590 40366
L69515 40348
L69458 40348
L69383 40366
L69346 40385
L69308 40423
L69290 40479
L69290 40573
" />
<path d="M69646 40198
L69665 40179
L69683 40141
L69683 40048
L69665 40010
L69646 39991
L69608 39973
L69571 39973
L69515 39991
L69290 40216
L69290 39973
" />
<path d="M69683 39729
L69683 39691
L69665 39654
L69646 39635
L69608 39616
L69533 39598
L69440 39598
L69365 39616
L69327 39635
L69308 39654
L69290 39691
L69290 39729
L69308 39766
L69327 39785
L69365 39804
L69440 39823
L69533 39823
L69608 39804
L69646 39785
L69665 39766
L69683 39729
" />
<path d="M69683 39466
L69683 39223
L69533 39354
L69533 39298
L69515 39260
L69496 39241
L69458 39223
L69365 39223
L69327 39241
L69308 39260
L69290 39298
L69290 39410
L69308 39448
L69327 39466
" />
<path d="M69290 47573
L69683 47573
L69683 47479
L69665 47423
L69627 47385
L69590 47366
L69515 47348
L69458 47348
L69383 47366
L69346 47385
L69308 47423
L69290 47479
L69290 47573
" />
<path d="M69646 47198
L69665 47179
L69683 47141
L69683 47048
L69665 47010
L69646 46991
L69608 46973
L69571 46973
L69515 46991
L69290 47216
L69290 46973
" />
<path d="M69683 46729
L69683 46691
L69665 46654
L69646 46635
L69608 46616
L69533 46598
L69440 46598
L69365 46616
L69327 46635
L69308 46654
L69290 46691
L69290 46729
L69308 46766
L69327 46785
L69365 46804
L69440 46823
L69533 46823
L69608 46804
L69646 46785
L69665 46766
L69683 46729
" />
<path d="M69552 46260
L69290 46260
" />
<path d="M69702 46354
L69421 46448
L69421 46204
" />
<path d="M79382 46663
L79101 46663
L79045 46682
L79007 46719
L78989 46776
L78989 46813
" />
<path d="M79345 46494
L79364 46476
L79382 46438
L79382 46344
L79364 46307
L79345 46288
L79307 46269
L79270 46269
L79214 46288
L78989 46513
L78989 46269
" />
<path d="M79382 46026
L79382 45988
L79364 45951
L79345 45932
L79307 45913
L79232 45895
L79139 45895
L79064 45913
L79026 45932
L79007 45951
L78989 45988
L78989 46026
L79007 46063
L79026 46082
L79064 46101
L79139 46119
L79232 46119
L79307 46101
L79345 46082
L79364 46063
L79382 46026
" />
<path d="M78989 45520
L78989 45745
" />
<path d="M78989 45632
L79382 45632
L79326 45670
L79289 45707
L79270 45745
" />
<path d="M63082 23085
L63082 22691
" />
<path d="M62857 23085
L63026 22860
" />
<path d="M62857 22691
L63082 22916
" />
<path d="M62707 22729
L62689 22710
L62651 22691
L62557 22691
L62520 22710
L62501 22729
L62482 22766
L62482 22804
L62501 22860
L62726 23085
L62482 23085
" />
<path d="M62239 22691
L62201 22691
L62164 22710
L62145 22729
L62126 22766
L62107 22841
L62107 22935
L62126 23010
L62145 23048
L62164 23066
L62201 23085
L62239 23085
L62276 23066
L62295 23048
L62314 23010
L62332 22935
L62332 22841
L62314 22766
L62295 22729
L62276 22710
L62239 22691
" />
<path d="M61732 23085
L61957 23085
" />
<path d="M61845 23085
L61845 22691
L61882 22748
L61920 22785
L61957 22804
" />
<path d="M63082 30085
L63082 29691
" />
<path d="M62857 30085
L63026 29860
" />
<path d="M62857 29691
L63082 29916
" />
<path d="M62707 29729
L62689 29710
L62651 29691
L62557 29691
L62520 29710
L62501 29729
L62482 29766
L62482 29804
L62501 29860
L62726 30085
L62482 30085
" />
<path d="M62239 29691
L62201 29691
L62164 29710
L62145 29729
L62126 29766
L62107 29841
L62107 29935
L62126 30010
L62145 30048
L62164 30066
L62201 30085
L62239 30085
L62276 30066
L62295 30048
L62314 30010
L62332 29935
L62332 29841
L62314 29766
L62295 29729
L62276 29710
L62239 29691
" />
<path d="M61957 29729
L61939 29710
L61901 29691
L61807 29691
L61770 29710
L61751 29729
L61732 29766
L61732 29804
L61751 29860
L61976 30085
L61732 30085
" />
<path d="M63082 37085
L63082 36691
" />
<path d="M62857 37085
L63026 36860
" />
<path d="M62857 36691
L63082 36916
" />
<path d="M62707 36729
L62689 36710
L62651 36691
L62557 36691
L62520 36710
L62501 36729
L62482 36766
L62482 36804
L62501 36860
L62726 37085
L62482 37085
" />
<path d="M62239 36691
L62201 36691
L62164 36710
L62145 36729
L62126 36766
L62107 36841
L62107 36935
L62126 37010
L62145 37048
L62164 37066
L62201 37085
L62239 37085
L62276 37066
L62295 37048
L62314 37010
L62332 36935
L62332 36841
L62314 36766
L62295 36729
L62276 36710
L62239 36691
" />
<path d="M61976 36691
L61732 36691
L61864 36841
L61807 36841
L61770 36860
L61751 36879
L61732 36916
L61732 37010
L61751 37048
L61770 37066
L61807 37085
L61920 37085
L61957 37066
L61976 37048
" />
<path d="M63082 44085
L63082 43691
" />
<path d="M62857 44085
L63026 43860
" />
<path d="M62857 43691
L63082 43916
" />
<path d="M62707 43729
L62689 43710
L62651 43691
L62557 43691
L62520 43710
L62501 43729
L62482 43766
L62482 43804
L62501 43860
L62726 44085
L62482 44085
" />
<path d="M62239 43691
L62201 43691
L62164 43710
L62145 43729
L62126 43766
L62107 43841
L62107 43935
L62126 44010
L62145 44048
L62164 44066
L62201 44085
L62239 44085
L62276 44066
L62295 44048
L62314 44010
L62332 43935
L62332 43841
L62314 43766
L62295 43729
L62276 43710
L62239 43691
" />
<path d="M61770 43823
L61770 44085
" />
<path d="M61864 43673
L61957 43954
L61714 43954
" />
<path d="M74603 26319
L74621 26357
L74659 26394
L74715 26451
L74734 26488
L74734 26526
" />
<path d="M74640 26507
L74659 26544
L74696 26582
L74771 26601
L74903 26601
L74978 26582
L75015 26544
L75034 26507
L75034 26432
L75015 26394
L74978 26357
L74903 26338
L74771 26338
L74696 26357
L74659 26394
L74640 26432
L74640 26507
" />
<path d="M74996 26188
L75015 26169
L75034 26132
L75034 26038
L75015 26001
L74996 25982
L74959 25963
L74921 25963
L74865 25982
L74640 26207
L74640 25963
" />
<path d="M75034 25720
L75034 25682
L75015 25645
L74996 25626
L74959 25607
L74884 25588
L74790 25588
L74715 25607
L74678 25626
L74659 25645
L74640 25682
L74640 25720
L74659 25757
L74678 25776
L74715 25794
L74790 25813
L74884 25813
L74959 25794
L74996 25776
L75015 25757
L75034 25720
" />
<path d="M74640 25213
L74640 25438
" />
<path d="M74640 25326
L75034 25326
L74978 25363
L74940 25401
L74921 25438
" />
<path d="M74603 33319
L74621 33357
L74659 33394
L74715 33451
L74734 33488
L74734 33526
" />
<path d="M74640 33507
L74659 33544
L74696 33582
L74771 33601
L74903 33601
L74978 33582
L75015 33544
L75034 33507
L75034 33432
L75015 33394
L74978 33357
L74903 33338
L74771 33338
L74696 33357
L74659 33394
L74640 33432
L74640 33507
" />
<path d="M74996 33188
L75015 33169
L75034 33132
L75034 33038
L75015 33001
L74996 32982
L74959 32963
L74921 32963
L74865 32982
L74640 33207
L74640 32963
" />
<path d="M75034 32720
L75034 32682
L75015 32645
L74996 32626
L74959 32607
L74884 32588
L74790 32588
L74715 32607
L74678 32626
L74659 32645
L74640 32682
L74640 32720
L74659 32757
L74678 32776
L74715 32794
L74790 32813
L74884 32813
L74959 32794
L74996 32776
L75015 32757
L75034 32720
" />
<path d="M74996 32438
L75015 32420
L75034 32382
L75034 32288
L75015 32251
L74996 32232
L74959 32213
L74921 32213
L74865 32232
L74640 32457
L74640 32213
" />
<path d="M74603 40319
L74621 40357
L74659 40394
L74715 40451
L74734 40488
L74734 40526
" />
<path d="M74640 40507
L74659 40544
L74696 40582
L74771 40601
L74903 40601
L74978 40582
L75015 40544
L75034 40507
L75034 40432
L75015 40394
L74978 40357
L74903 40338
L74771 40338
L74696 40357
L74659 40394
L74640 40432
L74640 40507
" />
<path d="M74996 40188
L75015 40169
L75034 40132
L75034 40038
L75015 40001
L74996 39982
L74959 39963
L74921 39963
L74865 39982
L74640 40207
L74640 39963
" />
<path d="M75034 39720
L75034 39682
L75015 39645
L74996 39626
L74959 39607
L74884 39588
L74790 39588
L74715 39607
L74678 39626
L74659 39645
L74640 39682
L74640 39720
L74659 39757
L74678 39776
L74715 39794
L74790 39813
L74884 39813
L74959 39794
L74996 39776
L75015 39757
L75034 39720
" />
<path d="M75034 39457
L75034 39213
L74884 39345
L74884 39288
L74865 39251
L74846 39232
L74809 39213
L74715 39213
L74678 39232
L74659 39251
L74640 39288
L74640 39401
L74659 39438
L74678 39457
" />
<path d="M74603 47319
L74621 47357
L74659 47394
L74715 47451
L74734 47488
L74734 47526
" />
<path d="M74640 47507
L74659 47544
L74696 47582
L74771 47601
L74903 47601
L74978 47582
L75015 47544
L75034 47507
L75034 47432
L75015 47394
L74978 47357
L74903 47338
L74771 47338
L74696 47357
L74659 47394
L74640 47432
L74640 47507
" />
<path d="M74996 47188
L75015 47169
L75034 47132
L75034 47038
L75015 47001
L74996 46982
L74959 46963
L74921 46963
L74865 46982
L74640 47207
L74640 46963
" />
<path d="M75034 46720
L75034 46682
L75015 46645
L74996 46626
L74959 46607
L74884 46588
L74790 46588
L74715 46607
L74678 46626
L74659 46645
L74640 46682
L74640 46720
L74659 46757
L74678 46776
L74715 46794
L74790 46813
L74884 46813
L74959 46794
L74996 46776
L75015 46757
L75034 46720
" />
<path d="M74903 46251
L74640 46251
" />
<path d="M75053 46345
L74771 46438
L74771 46195
" />
<path d="M76857 25353
L76988 25165
" />
<path d="M77082 25353
L77082 24959
L76932 24959
L76895 24978
L76876 24997
L76857 25034
L76857 25090
L76876 25128
L76895 25147
L76932 25165
L77082 25165
" />
<path d="M76707 24997
L76689 24978
L76651 24959
L76557 24959
L76520 24978
L76501 24997
L76482 25034
L76482 25072
L76501 25128
L76726 25353
L76482 25353
" />
<path d="M76239 24959
L76201 24959
L76164 24978
L76145 24997
L76126 25034
L76107 25109
L76107 25203
L76126 25278
L76145 25315
L76164 25334
L76201 25353
L76239 25353
L76276 25334
L76295 25315
L76314 25278
L76332 25203
L76332 25109
L76314 25034
L76295 24997
L76276 24978
L76239 24959
" />
<path d="M75732 25353
L75957 25353
" />
<path d="M75845 25353
L75845 24959
L75882 25015
L75920 25053
L75957 25072
" />
<path d="M76857 32353
L76988 32165
" />
<path d="M77082 32353
L77082 31959
L76932 31959
L76895 31978
L76876 31997
L76857 32034
L76857 32090
L76876 32128
L76895 32147
L76932 32165
L77082 32165
" />
<path d="M76707 31997
L76689 31978
L76651 31959
L76557 31959
L76520 31978
L76501 31997
L76482 32034
L76482 32072
L76501 32128
L76726 32353
L76482 32353
" />
<path d="M76239 31959
L76201 31959
L76164 31978
L76145 31997
L76126 32034
L76107 32109
L76107 32203
L76126 32278
L76145 32315
L76164 32334
L76201 32353
L76239 32353
L76276 32334
L76295 32315
L76314 32278
L76332 32203
L76332 32109
L76314 32034
L76295 31997
L76276 31978
L76239 31959
" />
<path d="M75957 31997
L75939 31978
L75901 31959
L75807 31959
L75770 31978
L75751 31997
L75732 32034
L75732 32072
L75751 32128
L75976 32353
L75732 32353
" />
<path d="M76857 39353
L76988 39165
" />
<path d="M77082 39353
L77082 38959
L76932 38959
L76895 38978
L76876 38997
L76857 39034
L76857 39090
L76876 39128
L76895 39147
L76932 39165
L77082 39165
" />
<path d="M76707 38997
L76689 38978
L76651 38959
L76557 38959
L76520 38978
L76501 38997
L76482 39034
L76482 39072
L76501 39128
L76726 39353
L76482 39353
" />
<path d="M76239 38959
L76201 38959
L76164 38978
L76145 38997
L76126 39034
L76107 39109
L76107 39203
L76126 39278
L76145 39315
L76164 39334
L76201 39353
L76239 39353
L76276 39334
L76295 39315
L76314 39278
L76332 39203
L76332 39109
L76314 39034
L76295 38997
L76276 38978
L76239 38959
" />
<path d="M75976 38959
L75732 38959
L75864 39109
L75807 39109
L75770 39128
L75751 39147
L75732 39184
L75732 39278
L75751 39315
L75770 39334
L75807 39353
L75920 39353
L75957 39334
L75976 39315
" />
<path d="M76857 46353
L76988 46165
" />
<path d="M77082 46353
L77082 45959
L76932 45959
L76895 45978
L76876 45997
L76857 46034
L76857 46090
L76876 46128
L76895 46147
L76932 46165
L77082 46165
" />
<path d="M76707 45997
L76689 45978
L76651 45959
L76557 45959
L76520 45978
L76501 45997
L76482 46034
L76482 46072
L76501 46128
L76726 46353
L76482 46353
" />
<path d="M76239 45959
L76201 45959
L76164 45978
L76145 45997
L76126 46034
L76107 46109
L76107 46203
L76126 46278
L76145 46315
L76164 46334
L76201 46353
L76239 46353
L76276 46334
L76295 46315
L76314 46278
L76332 46203
L76332 46109
L76314 46034
L76295 45997
L76276 45978
L76239 45959
" />
<path d="M75770 46090
L75770 46353
" />
<path d="M75864 45940
L75957 46222
L75714 46222
" />
<path d="M60857 3798
L60876 3816
L60932 3835
L60970 3835
L61026 3816
L61063 3779
L61082 3741
L61101 3666
L61101 3610
L61082 3535
L61063 3498
L61026 3460
L60970 3441
L60932 3441
L60876 3460
L60857 3479
" />
<path d="M60726 3441
L60482 3441
L60614 3591
L60557 3591
L60520 3610
L60501 3629
L60482 3666
L60482 3760
L60501 3798
L60520 3816
L60557 3835
L60670 3835
L60707 3816
L60726 3798
" />
<path d="M60239 3441
L60201 3441
L60164 3460
L60145 3479
L60126 3516
L60107 3591
L60107 3685
L60126 3760
L60145 3798
L60164 3816
L60201 3835
L60239 3835
L60276 3816
L60295 3798
L60314 3760
L60332 3685
L60332 3591
L60314 3516
L60295 3479
L60276 3460
L60239 3441
" />
<path d="M59732 3835
L59957 3835
" />
<path d="M59845 3835
L59845 3441
L59882 3498
L59920 3535
L59957 3554
" />
<path d="M60639 10798
L60657 10816
L60714 10835
L60751 10835
L60807 10816
L60845 10779
L60864 10741
L60882 10666
L60882 10610
L60864 10535
L60845 10498
L60807 10460
L60751 10441
L60714 10441
L60657 10460
L60639 10479
" />
<path d="M60507 10441
L60264 10441
L60395 10591
L60339 10591
L60301 10610
L60283 10629
L60264 10666
L60264 10760
L60283 10798
L60301 10816
L60339 10835
L60451 10835
L60489 10816
L60507 10798
" />
<path d="M60020 10441
L59983 10441
L59945 10460
L59926 10479
L59908 10516
L59889 10591
L59889 10685
L59908 10760
L59926 10798
L59945 10816
L59983 10835
L60020 10835
L60058 10816
L60076 10798
L60095 10760
L60114 10685
L60114 10591
L60095 10516
L60076 10479
L60058 10460
L60020 10441
" />
<path d="M59739 10479
L59720 10460
L59683 10441
L59589 10441
L59551 10460
L59533 10479
L59514 10516
L59514 10554
L59533 10610
L59758 10835
L59514 10835
" />
<path d="M67873 6770
L67892 6789
L67948 6808
L67985 6808
L68042 6789
L68079 6751
L68098 6714
L68117 6639
L68117 6583
L68098 6508
L68079 6470
L68042 6433
L67985 6414
L67948 6414
L67892 6433
L67873 6451
" />
<path d="M67742 6414
L67498 6414
L67629 6564
L67573 6564
L67536 6583
L67517 6601
L67498 6639
L67498 6733
L67517 6770
L67536 6789
L67573 6808
L67686 6808
L67723 6789
L67742 6770
" />
<path d="M67254 6414
L67217 6414
L67179 6433
L67161 6451
L67142 6489
L67123 6564
L67123 6658
L67142 6733
L67161 6770
L67179 6789
L67217 6808
L67254 6808
L67292 6789
L67311 6770
L67329 6733
L67348 6658
L67348 6564
L67329 6489
L67311 6451
L67292 6433
L67254 6414
" />
<path d="M66992 6414
L66748 6414
L66879 6564
L66823 6564
L66786 6583
L66767 6601
L66748 6639
L66748 6733
L66767 6770
L66786 6789
L66823 6808
L66936 6808
L66973 6789
L66992 6770
" />
<path d="M67656 2073
L68050 2073
L68050 1979
L68031 1923
L67993 1885
L67956 1866
L67881 1848
L67825 1848
L67750 1866
L67712 1885
L67675 1923
L67656 1979
L67656 2073
" />
<path d="M68050 1716
L68050 1473
L67900 1604
L67900 1548
L67881 1510
L67862 1491
L67825 1473
L67731 1473
L67693 1491
L67675 1510
L67656 1548
L67656 1660
L67675 1698
L67693 1716
" />
<path d="M68050 1229
L68050 1191
L68031 1154
L68012 1135
L67975 1116
L67900 1098
L67806 1098
L67731 1116
L67693 1135
L67675 1154
L67656 1191
L67656 1229
L67675 1266
L67693 1285
L67731 1304
L67806 1323
L67900 1323
L67975 1304
L68012 1285
L68031 1266
L68050 1229
" />
<path d="M67656 723
L67656 948
" />
<path d="M67656 835
L68050 835
L67993 873
L67956 910
L67937 948
" />
<path d="M58965 1913
L58684 1913
L58627 1932
L58590 1969
L58571 2026
L58571 2063
" />
<path d="M58965 1763
L58965 1519
L58815 1651
L58815 1594
L58796 1557
L58777 1538
L58740 1519
L58646 1519
L58609 1538
L58590 1557
L58571 1594
L58571 1707
L58590 1744
L58609 1763
" />
<path d="M58965 1276
L58965 1238
L58946 1201
L58927 1182
L58890 1163
L58815 1145
L58721 1145
L58646 1163
L58609 1182
L58590 1201
L58571 1238
L58571 1276
L58590 1313
L58609 1332
L58646 1351
L58721 1369
L58815 1369
L58890 1351
L58927 1332
L58946 1313
L58965 1276
" />
<path d="M58571 770
L58571 995
" />
<path d="M58571 882
L58965 882
L58909 920
L58871 957
L58852 995
" />
<path d="M70423 5524
L70423 5805
L70442 5862
L70479 5899
L70535 5918
L70573 5918
" />
<path d="M70273 5524
L70029 5524
L70160 5674
L70104 5674
L70067 5693
L70048 5712
L70029 5749
L70029 5843
L70048 5880
L70067 5899
L70104 5918
L70217 5918
L70254 5899
L70273 5880
" />
<path d="M69785 5524
L69748 5524
L69710 5543
L69692 5562
L69673 5599
L69654 5674
L69654 5768
L69673 5843
L69692 5880
L69710 5899
L69748 5918
L69785 5918
L69823 5899
L69842 5880
L69860 5843
L69879 5768
L69879 5674
L69860 5599
L69842 5562
L69823 5543
L69785 5524
" />
<path d="M69504 5562
L69485 5543
L69448 5524
L69354 5524
L69317 5543
L69298 5562
L69279 5599
L69279 5637
L69298 5693
L69523 5918
L69279 5918
" />
<path d="M68923 4191
L68923 4473
L68942 4529
L68979 4566
L69035 4585
L69073 4585
" />
<path d="M68773 4191
L68529 4191
L68660 4341
L68604 4341
L68567 4360
L68548 4379
L68529 4416
L68529 4510
L68548 4548
L68567 4566
L68604 4585
L68717 4585
L68754 4566
L68773 4548
" />
<path d="M68285 4191
L68248 4191
L68210 4210
L68192 4229
L68173 4266
L68154 4341
L68154 4435
L68173 4510
L68192 4548
L68210 4566
L68248 4585
L68285 4585
L68323 4566
L68342 4548
L68360 4510
L68379 4435
L68379 4341
L68360 4266
L68342 4229
L68323 4210
L68285 4191
" />
<path d="M68023 4191
L67779 4191
L67910 4341
L67854 4341
L67817 4360
L67798 4379
L67779 4416
L67779 4510
L67798 4548
L67817 4566
L67854 4585
L67967 4585
L68004 4566
L68023 4548
" />
<path d="M66607 13335
L66738 13148
" />
<path d="M66832 13335
L66832 12941
L66682 12941
L66645 12960
L66626 12979
L66607 13016
L66607 13073
L66626 13110
L66645 13129
L66682 13148
L66832 13148
" />
<path d="M66476 12941
L66232 12941
L66364 13091
L66307 13091
L66270 13110
L66251 13129
L66232 13166
L66232 13260
L66251 13298
L66270 13316
L66307 13335
L66420 13335
L66457 13316
L66476 13298
" />
<path d="M65989 12941
L65951 12941
L65914 12960
L65895 12979
L65876 13016
L65857 13091
L65857 13185
L65876 13260
L65895 13298
L65914 13316
L65951 13335
L65989 13335
L66026 13316
L66045 13298
L66064 13260
L66082 13185
L66082 13091
L66064 13016
L66045 12979
L66026 12960
L65989 12941
" />
<path d="M65482 13335
L65707 13335
" />
<path d="M65595 13335
L65595 12941
L65632 12998
L65670 13035
L65707 13054
" />
<path d="M64221 2848
L64408 2979
" />
<path d="M64221 3073
L64615 3073
L64615 2923
L64596 2885
L64577 2866
L64540 2848
L64483 2848
L64446 2866
L64427 2885
L64408 2923
L64408 3073
" />
<path d="M64615 2716
L64615 2473
L64465 2604
L64465 2548
L64446 2510
L64427 2491
L64390 2473
L64296 2473
L64258 2491
L64240 2510
L64221 2548
L64221 2660
L64240 2698
L64258 2716
" />
<path d="M64615 2229
L64615 2191
L64596 2154
L64577 2135
L64540 2116
L64465 2098
L64371 2098
L64296 2116
L64258 2135
L64240 2154
L64221 2191
L64221 2229
L64240 2266
L64258 2285
L64296 2304
L64371 2323
L64465 2323
L64540 2304
L64577 2285
L64596 2266
L64615 2229
" />
<path d="M64577 1948
L64596 1929
L64615 1891
L64615 1798
L64596 1760
L64577 1741
L64540 1723
L64502 1723
L64446 1741
L64221 1966
L64221 1723
" />
<path d="M66357 3585
L66488 3398
" />
<path d="M66582 3585
L66582 3191
L66432 3191
L66395 3210
L66376 3229
L66357 3266
L66357 3323
L66376 3360
L66395 3379
L66432 3398
L66582 3398
" />
<path d="M66226 3191
L65982 3191
L66114 3341
L66057 3341
L66020 3360
L66001 3379
L65982 3416
L65982 3510
L66001 3548
L66020 3566
L66057 3585
L66170 3585
L66207 3566
L66226 3548
" />
<path d="M65739 3191
L65701 3191
L65664 3210
L65645 3229
L65626 3266
L65607 3341
L65607 3435
L65626 3510
L65645 3548
L65664 3566
L65701 3585
L65739 3585
L65776 3566
L65795 3548
L65814 3510
L65832 3435
L65832 3341
L65814 3266
L65795 3229
L65776 3210
L65739 3191
" />
<path d="M65476 3191
L65232 3191
L65364 3341
L65307 3341
L65270 3360
L65251 3379
L65232 3416
L65232 3510
L65251 3548
L65270 3566
L65307 3585
L65420 3585
L65457 3566
L65476 3548
" />
<path d="M64471 8098
L64658 8229
" />
<path d="M64471 8323
L64865 8323
L64865 8173
L64846 8135
L64827 8116
L64790 8098
L64733 8098
L64696 8116
L64677 8135
L64658 8173
L64658 8323
" />
<path d="M64865 7966
L64865 7723
L64715 7854
L64715 7798
L64696 7760
L64677 7741
L64640 7723
L64546 7723
L64508 7741
L64490 7760
L64471 7798
L64471 7910
L64490 7948
L64508 7966
" />
<path d="M64865 7479
L64865 7441
L64846 7404
L64827 7385
L64790 7366
L64715 7348
L64621 7348
L64546 7366
L64508 7385
L64490 7404
L64471 7441
L64471 7479
L64490 7516
L64508 7535
L64546 7554
L64621 7573
L64715 7573
L64790 7554
L64827 7535
L64846 7516
L64865 7479
" />
<path d="M64733 7010
L64471 7010
" />
<path d="M64883 7104
L64602 7198
L64602 6954
" />
<path d="M65239 7098
L65426 7229
" />
<path d="M65239 7323
L65632 7323
L65632 7173
L65614 7135
L65595 7116
L65557 7098
L65501 7098
L65464 7116
L65445 7135
L65426 7173
L65426 7323
" />
<path d="M65632 6966
L65632 6723
L65482 6854
L65482 6798
L65464 6760
L65445 6741
L65407 6723
L65314 6723
L65276 6741
L65257 6760
L65239 6798
L65239 6910
L65257 6948
L65276 6966
" />
<path d="M65632 6479
L65632 6441
L65614 6404
L65595 6385
L65557 6366
L65482 6348
L65389 6348
L65314 6366
L65276 6385
L65257 6404
L65239 6441
L65239 6479
L65257 6516
L65276 6535
L65314 6554
L65389 6573
L65482 6573
L65557 6554
L65595 6535
L65614 6516
L65632 6479
" />
<path d="M65632 5991
L65632 6179
L65445 6198
L65464 6179
L65482 6141
L65482 6048
L65464 6010
L65445 5991
L65407 5973
L65314 5973
L65276 5991
L65257 6010
L65239 6048
L65239 6141
L65257 6179
L65276 6198
" />
<path d="M66526 12085
L66657 11898
" />
<path d="M66751 12085
L66751 11691
L66601 11691
L66563 11710
L66545 11729
L66526 11766
L66526 11823
L66545 11860
L66563 11879
L66601 11898
L66751 11898
" />
<path d="M66413 11691
L66282 12085
L66151 11691
" />
<path d="M66057 11691
L65814 11691
L65945 11841
L65889 11841
L65851 11860
L65832 11879
L65814 11916
L65814 12010
L65832 12048
L65851 12066
L65889 12085
L66001 12085
L66039 12066
L66057 12048
" />
<path d="M65570 11691
L65532 11691
L65495 11710
L65476 11729
L65457 11766
L65439 11841
L65439 11935
L65457 12010
L65476 12048
L65495 12066
L65532 12085
L65570 12085
L65607 12066
L65626 12048
L65645 12010
L65664 11935
L65664 11841
L65645 11766
L65626 11729
L65607 11710
L65570 11691
" />
<path d="M65064 12085
L65289 12085
" />
<path d="M65176 12085
L65176 11691
L65214 11748
L65251 11785
L65289 11804
" />
<path d="M61092 4524
L61092 4843
L61073 4880
L61054 4899
L61017 4918
L60942 4918
L60904 4899
L60885 4880
L60867 4843
L60867 4524
" />
<path d="M60717 4524
L60473 4524
L60604 4674
L60548 4674
L60510 4693
L60492 4712
L60473 4749
L60473 4843
L60492 4880
L60510 4899
L60548 4918
L60660 4918
L60698 4899
L60717 4880
" />
<path d="M60229 4524
L60192 4524
L60154 4543
L60135 4562
L60117 4599
L60098 4674
L60098 4768
L60117 4843
L60135 4880
L60154 4899
L60192 4918
L60229 4918
L60267 4899
L60285 4880
L60304 4843
L60323 4768
L60323 4674
L60304 4599
L60285 4562
L60267 4543
L60229 4524
" />
<path d="M59723 4918
L59948 4918
" />
<path d="M59835 4918
L59835 4524
L59873 4580
L59910 4618
L59948 4637
" />
<path d="M68332 9394
L68332 9001
L68238 9001
L68182 9019
L68145 9057
L68126 9094
L68107 9169
L68107 9226
L68126 9301
L68145 9338
L68182 9376
L68238 9394
L68332 9394
" />
<path d="M67976 9001
L67732 9001
L67864 9151
L67807 9151
L67770 9169
L67751 9188
L67732 9226
L67732 9319
L67751 9357
L67770 9376
L67807 9394
L67920 9394
L67957 9376
L67976 9357
" />
<path d="M67489 9001
L67451 9001
L67414 9019
L67395 9038
L67376 9076
L67357 9151
L67357 9244
L67376 9319
L67395 9357
L67414 9376
L67451 9394
L67489 9394
L67526 9376
L67545 9357
L67564 9319
L67582 9244
L67582 9151
L67564 9076
L67545 9038
L67526 9019
L67489 9001
" />
<path d="M67207 9038
L67189 9019
L67151 9001
L67057 9001
L67020 9019
L67001 9038
L66982 9076
L66982 9113
L67001 9169
L67226 9394
L66982 9394
" />
<path d="M55141 29
L55141 13809
" />
<path d="M72858 29
L55141 29
" />
<path d="M72858 13809
L72858 29
" />
<path d="M55141 13809
L72858 13809
" />
</g>
<g style="fill:#000000; fill-opacity:0.0; 
stroke:#000000; stroke-width:78.7402; stroke-opacity:1; 
stroke-linecap:round; stroke-linejoin:round;">
<path d="M43330 17746
L82700 17746
" />
<path d="M43330 53179
L82700 53179
" />
<path d="M82700 17746
L82700 53179
" />
</g>
<g style="fill:#000000; fill-opacity:0.0; 
stroke:#000000; stroke-width:59.0551; stroke-opacity:1; 
stroke-linecap:round; stroke-linejoin:round;">
<path d="M43330 17746
L43330 53179
" />
<circle cx="1991.97" cy="5935.04" r="656.168" /> 
<path d="M2976 5935
L1007 5935
" />
<path d="M1991 4950
L1991 6919
" />
<circle cx="1991.97" cy="27588.6" r="656.168" /> 
<path d="M2976 27588
L1007 27588
" />
<path d="M1991 26604
L1991 28572
" />
<circle cx="33488" cy="27588.6" r="656.168" /> 
<path d="M34472 27588
L32503 27588
" />
<path d="M33488 26604
L33488 28572
" />
<circle cx="33488" cy="5935.04" r="656.168" /> 
<path d="M34472 5935
L32503 5935
" />
<path d="M33488 4950
L33488 6919
" />
<path d="M23 3966
L35456 3966
" />
<path d="M23 29557
L35456 29557
" />
<path d="M35456 3966
L35456 29557
" />
<path d="M23 29557
L23 3966
" />
</g> 
</svg>
