<?xml version="1.0" standalone="no"?>
 <!DOCTYPE svg PUBLIC "-//W3C//DTD SVG 1.1//EN" 
 "http://www.w3.org/Graphics/SVG/1.1/DTD/svg11.dtd"> 
<svg xmlns="http://www.w3.org/2000/svg" version="1.1" 
    width="21.016cm" height="13.5153cm" viewBox="0 0 82740 53210 ">
<title>SVG Picture created as remote-sequencer-Edge.Cuts.svg date 2019/01/13 00:05:56 </title>
  <desc>Picture generated by PCBNEW </desc>
<g style="fill:#000000; fill-opacity:1;stroke:#000000; stroke-opacity:1;
stroke-linecap:round; stroke-linejoin:round; "
 transform="translate(0 0) scale(1 1)">
</g>
<g style="fill:#000000; fill-opacity:0.0; 
stroke:#000000; stroke-width:-0.000393701; stroke-opacity:1; 
stroke-linecap:round; stroke-linejoin:round;">
</g>
<g style="fill:#000000; fill-opacity:0.0; 
stroke:#000000; stroke-width:59.0551; stroke-opacity:1; 
stroke-linecap:round; stroke-linejoin:round;">
<path d="M55141 29
L55141 13809
" />
<path d="M72858 29
L55141 29
" />
<path d="M72858 13809
L72858 29
" />
<path d="M55141 13809
L72858 13809
" />
</g>
<g style="fill:#000000; fill-opacity:0.0; 
stroke:#000000; stroke-width:78.7402; stroke-opacity:1; 
stroke-linecap:round; stroke-linejoin:round;">
<path d="M43330 17746
L82700 17746
" />
<path d="M43330 53179
L82700 53179
" />
<path d="M82700 17746
L82700 53179
" />
</g>
<g style="fill:#000000; fill-opacity:0.0; 
stroke:#000000; stroke-width:59.0551; stroke-opacity:1; 
stroke-linecap:round; stroke-linejoin:round;">
<path d="M43330 17746
L43330 53179
" />
<circle cx="1991.97" cy="5935.04" r="656.168" /> 
<path d="M2976 5935
L1007 5935
" />
<path d="M1991 4950
L1991 6919
" />
<circle cx="1991.97" cy="27588.6" r="656.168" /> 
<path d="M2976 27588
L1007 27588
" />
<path d="M1991 26604
L1991 28572
" />
<circle cx="33488" cy="27588.6" r="656.168" /> 
<path d="M34472 27588
L32503 27588
" />
<path d="M33488 26604
L33488 28572
" />
<circle cx="33488" cy="5935.04" r="656.168" /> 
<path d="M34472 5935
L32503 5935
" />
<path d="M33488 4950
L33488 6919
" />
<path d="M23 3966
L35456 3966
" />
<path d="M23 29557
L35456 29557
" />
<path d="M35456 3966
L35456 29557
" />
<path d="M23 29557
L23 3966
" />
</g> 
</svg>
